<svg width="304" height="261" xmlns="http://www.w3.org/2000/svg" xmlns:xlink="http://www.w3.org/1999/xlink" xml:space="preserve" overflow="hidden"><g transform="translate(-799 -340)"><path d="M41.8123 255.161C41.2072 255.198 40.8729 254.447 41.3306 254.008L41.3761 253.827 41.358 253.784C40.7462 252.325 38.6725 252.335 38.0658 253.796 37.5273 255.093 36.8418 256.392 36.673 257.763 36.5973 258.369 36.6314 258.985 36.7657 259.579 35.504 256.823 34.84 253.814 34.84 250.787 34.84 250.026 34.8817 249.266 34.9668 248.508 35.0368 247.887 35.1332 247.27 35.2581 246.659 35.9334 243.357 37.3956 240.211 39.5047 237.583 40.5186 237.03 41.3641 236.163 41.8748 235.125 42.0583 234.75 42.2021 234.347 42.2702 233.937 42.1548 233.952 41.8351 232.194 41.9222 232.087 41.7613 231.843 41.4736 231.722 41.2979 231.484 40.4245 230.299 39.2211 230.506 38.5929 232.115 37.251 232.792 37.238 233.916 38.0614 234.996 38.5853 235.683 38.6573 236.614 39.1169 237.349 39.0696 237.409 39.0204 237.468 38.9732 237.529 38.1059 238.641 37.3559 239.837 36.7236 241.093 36.9023 239.697 36.6385 238.015 36.1887 236.931 35.6767 235.696 34.7171 234.656 33.872 233.588 32.8569 232.305 30.7754 232.865 30.5966 234.491L30.5915 234.538C30.717 234.609 30.84 234.684 30.9601 234.764 31.6452 235.217 31.4085 236.279 30.5966 236.404L30.5783 236.407C30.6237 236.859 30.7012 237.308 30.8147 237.749 29.7305 241.941 32.0712 243.468 35.4132 243.537 35.4869 243.575 35.5588 243.612 35.6326 243.648 35.294 244.602 35.0235 245.58 34.823 246.571 34.6433 247.446 34.5184 248.332 34.4484 249.221 34.3614 250.343 34.369 251.47 34.4636 252.59L34.4579 252.55C34.2177 251.317 33.5481 250.165 32.5758 249.366 31.1274 248.177 29.081 247.739 27.5185 246.782 26.7663 246.322 25.8024 246.917 25.9337 247.789L25.9401 247.831C26.1727 247.925 26.3997 248.035 26.6192 248.158 26.7447 248.228 26.8676 248.304 26.9877 248.383 27.6729 248.836 27.4361 249.898 26.6243 250.024L26.6059 250.026 26.5681 250.032C26.9672 250.98 27.5233 251.859 28.2194 252.618 28.8973 256.278 31.8088 256.625 34.9232 255.56L34.9251 255.56C35.2656 257.043 35.7631 258.491 36.4025 259.872L41.68 259.872C41.6989 259.814 41.716 259.753 41.733 259.694 41.245 259.725 40.7531 259.696 40.2726 259.607 40.6642 259.127 41.0558 258.643 41.4473 258.162 41.4568 258.153 41.4644 258.143 41.4719 258.134 41.6705 257.888 41.8711 257.644 42.0697 257.398L42.0698 257.398C42.0822 256.643 41.9917 255.891 41.8124 255.161L41.8123 255.161 41.8123 255.161 41.8123 255.161Z" fill="#F2F2F2" transform="matrix(1 0 0 1.0011 799 340.117)"/><path d="M266.443 255.161C267.048 255.198 267.383 254.447 266.925 254.008L266.879 253.827 266.898 253.784C267.509 252.325 269.583 252.335 270.19 253.796 270.728 255.093 271.414 256.392 271.583 257.763 271.658 258.369 271.624 258.985 271.49 259.579 272.751 256.823 273.416 253.814 273.416 250.787 273.416 250.026 273.374 249.266 273.289 248.508 273.219 247.887 273.122 247.27 272.998 246.659 272.322 243.357 270.86 240.211 268.751 237.583 267.737 237.03 266.891 236.163 266.381 235.125 266.197 234.75 266.053 234.347 265.985 233.937 266.101 233.952 266.42 232.194 266.333 232.087 266.494 231.843 266.782 231.722 266.958 231.484 267.831 230.299 269.034 230.506 269.663 232.115 271.005 232.792 271.017 233.916 270.194 234.996 269.67 235.683 269.598 236.614 269.139 237.349 269.186 237.409 269.235 237.468 269.282 237.529 270.149 238.641 270.9 239.837 271.532 241.093 271.353 239.697 271.617 238.015 272.067 236.931 272.579 235.696 273.538 234.656 274.384 233.588 275.399 232.305 277.48 232.865 277.659 234.491L277.664 234.538C277.538 234.609 277.416 234.684 277.295 234.764 276.61 235.217 276.847 236.279 277.659 236.404L277.677 236.407C277.632 236.859 277.554 237.308 277.441 237.749 278.525 241.941 276.184 243.468 272.842 243.537 272.768 243.575 272.697 243.612 272.623 243.648 272.961 244.602 273.232 245.58 273.433 246.571 273.612 247.446 273.737 248.332 273.807 249.221 273.894 250.343 273.886 251.47 273.792 252.59L273.797 252.55C274.038 251.317 274.707 250.165 275.68 249.366 277.128 248.177 279.175 247.739 280.737 246.782 281.489 246.322 282.453 246.917 282.322 247.789L282.316 247.831C282.083 247.925 281.856 248.035 281.636 248.158 281.511 248.228 281.388 248.304 281.268 248.383 280.582 248.836 280.819 249.898 281.631 250.024L281.649 250.026 281.687 250.032C281.288 250.98 280.732 251.859 280.036 252.618 279.358 256.278 276.447 256.625 273.332 255.56L273.33 255.56C272.99 257.043 272.492 258.491 271.853 259.872L266.575 259.872C266.557 259.814 266.54 259.753 266.522 259.694 267.01 259.725 267.502 259.696 267.983 259.607 267.591 259.127 267.2 258.643 266.808 258.162 266.799 258.153 266.791 258.143 266.783 258.134 266.585 257.888 266.385 257.644 266.186 257.398L266.186 257.398C266.173 256.643 266.264 255.891 266.443 255.161L266.443 255.161 266.443 255.161 266.443 255.161Z" fill="#F2F2F2" transform="matrix(1 0 0 1.0011 799 340.117)"/><path d="M164.269 257.396 168.799 257.396 170.954 239.922 164.268 239.923 164.269 257.396Z" fill="#FFB6B6" transform="matrix(1 0 0 1.0011 799 340.117)"/><path d="M179.79 257.293 179.79 257.293C179.931 257.531 180.005 258.297 180.005 258.574L180.005 258.574C180.005 259.423 179.317 260.111 178.468 260.111L164.439 260.111C163.859 260.111 163.39 259.642 163.39 259.063L163.39 258.478C163.39 258.478 162.696 256.723 164.124 254.559 164.124 254.559 165.9 256.253 168.554 253.599L169.336 252.182 175.001 256.325 178.141 256.711C178.827 256.796 179.436 256.698 179.79 257.293L179.79 257.293Z" fill="#2F2E41" transform="matrix(1 0 0 1.0011 799 340.117)"/><path d="M132.983 257.396 137.513 257.396 139.668 239.922 132.982 239.923 132.983 257.396Z" fill="#FFB6B6" transform="matrix(1 0 0 1.0011 799 340.117)"/><path d="M148.504 257.293 148.504 257.293C148.645 257.531 148.719 258.297 148.719 258.574L148.719 258.574C148.719 259.423 148.031 260.111 147.182 260.111L133.152 260.111C132.573 260.111 132.103 259.642 132.103 259.063L132.103 258.478C132.103 258.478 131.409 256.723 132.838 254.559 132.838 254.559 134.614 256.253 137.268 253.599L138.05 252.182 143.715 256.325 146.854 256.711C147.541 256.796 148.15 256.698 148.504 257.293L148.504 257.293Z" fill="#2F2E41" transform="matrix(1 0 0 1.0011 799 340.117)"/><path d="M0.506337 260.48 303.494 260.48C303.773 260.48 304 260.254 304 259.974 304 259.694 303.773 259.468 303.494 259.468L0.506337 259.468C0.226693 259.468 0 259.694 0 259.974 0 260.254 0.226693 260.48 0.506337 260.48Z" fill="#E6E6E6" transform="matrix(1 0 0 1.0011 799 340.117)"/><path d="M165.623 174.871 167.302 177.079C167.302 177.079 167.454 178.11 170.001 186.512L171.398 249.66 162.946 249.66 151.652 199.134 139.928 250.673 132.602 251.105 132.946 192.525C132.946 192.525 132.174 190.487 132.831 188.098 135.342 178.955 135.198 181.365 135.3 178.235 135.431 174.267 165.623 174.871 165.623 174.871Z" fill="#2F2E41" transform="matrix(1 0 0 1.0011 799 340.117)"/><path d="M161.169 112.937C161.169 117.835 157.199 121.805 152.302 121.805 147.404 121.805 143.434 117.835 143.434 112.937 143.434 108.04 147.404 104.07 152.302 104.07 157.199 104.07 161.169 108.04 161.169 112.937Z" fill="#FEB8B8" transform="matrix(1 0 0 1.0011 799 340.117)"/><path d="M147.534 123.473 142.627 126.185C138.533 126.482 135.598 127.571 132.989 128.884L135.866 154.108 135.342 178.955C135.342 178.955 151.658 190.132 167.303 177.078L167.303 143.318 166.569 129.893C166.483 128.327 165.099 127.113 163.544 127.319 162.657 127.436 161.635 127.413 160.591 127.065L157.343 123.296 147.534 123.473 147.534 123.473Z" fill="#C3B2AA" transform="matrix(1 0 0 1.0011 799 340.117)"/><path d="M175.277 102.665C175.771 103.78 175.973 104.916 175.908 105.9L181.293 116.234 176.301 118.653 171.376 107.91C170.602 107.297 169.897 106.385 169.402 105.269 168.271 102.72 168.67 100.07 170.292 99.3509 171.915 98.6315 174.146 100.115 175.277 102.665L175.277 102.665 175.277 102.665Z" fill="#FFB6B6" transform="matrix(1 0 0 1.0011 799 340.117)"/><path d="M160.591 127.065 162.076 127.745C163.439 126.28 167.545 126.51 169.537 126.7L178.291 127.535 174.203 114.745 180.357 112.269 187.711 126.421C188.156 128.822 187.158 131.262 185.158 132.663L166.396 143.317 164.215 128.723 160.591 127.065 160.591 127.065Z" fill="#C3B2AA" transform="matrix(1 0 0 1.0011 799 340.117)"/><path d="M115.22 187.053C115.313 185.836 115.674 184.741 116.198 183.905L116.356 172.254 121.898 172.491 121.141 184.285C121.532 185.19 121.721 186.328 121.627 187.545 121.414 190.326 119.806 192.47 118.037 192.334 116.268 192.198 115.006 189.834 115.22 187.053L115.22 187.053 115.22 187.053 115.22 187.053Z" fill="#FFB6B6" transform="matrix(1 0 0 1.0011 799 340.117)"/><path d="M137.096 132.071 134.549 128.203C134.549 128.203 130.396 128.996 128.188 132.128 125.981 135.26 117.639 154.466 117.639 154.466L116.037 176.149 122.242 174.871 125.236 158.427 134.863 145.272 137.096 132.071 137.096 132.071Z" fill="#C3B2AA" transform="matrix(1 0 0 1.0011 799 340.117)"/><path d="M161.169 114.114C161.502 112.423 156.362 109.963 156.372 109.966 157.169 110.22 155.915 111.683 155.095 111.51 155.095 111.51 153.891 112.123 154.547 112.65 152.285 112.456 149.263 110.306 147.001 110.112 146.091 110.033 145.738 112.226 145.167 112.937 144.302 114.026 143.434 111.861 143.754 114.745L143.625 114.745C143.153 113.607 142.681 112.449 142.526 111.226 142.377 110.003 142.586 108.685 143.367 107.731 143.625 107.408 142.609 106.344 142.883 106.035 143.753 105.036 145.44 104.489 146.215 103.421 147.242 102.005 148.41 103.004 150.547 101.813 151.107 101.502 152.079 101.39 152.698 101.551L154.145 101.929 154.145 101.929C153.863 102.352 154.212 102.91 154.715 102.842L156.601 102.585C157.311 102.814 157.988 103.152 158.306 103.803 158.5 104.191 158.534 104.643 158.684 105.051 158.957 105.802 159.603 106.344 160.12 106.95 161.51 107.355 161.585 108.394 161.585 110.136 162.88 110.863 161.529 112.488 161.169 114.114L161.169 114.114Z" fill="#2F2E41" transform="matrix(1 0 0 1.0011 799 340.117)"/><path d="M16.0606 32.1501 16.0606 32.1501C16.4642 31.0167 17.5898 30.3477 18.7358 30.4762 19.2134 30.5298 19.6907 30.5723 20.1705 30.5441 32.1366 29.8404 46.9577 36.6919 62.7352 46.0747L62.7352 46.0747C48.2919 34.3876 35.0727 24.0491 19.525 34.6736 18.4145 35.4324 16.841 35.1644 16.195 33.9847 15.9355 33.5107 15.8418 32.9426 15.9965 32.3568 16.0148 32.2877 16.0361 32.2187 16.0606 32.1501L16.0606 32.1501 16.0606 32.1501Z" fill="#E6E6E6" transform="matrix(1 0 0 1.0011 799 340.117)"/><path d="M95.8689 4.11756 95.8689 4.11756C96.8552 4.74639 97.2609 5.94232 96.9323 7.0084L96.895 7.12871C96.5659 8.19896 95.848 9.0981 94.8975 9.6899 81.2911 18.1605 97.0446 29.0008 71.8628 46.4984L71.8628 46.4984C84.0567 33.45 94.0866 3.2324 95.6104 3.97296 95.6984 4.01562 95.7844 4.06379 95.8689 4.11756L95.8689 4.11756Z" fill="#E6E6E6" transform="matrix(1 0 0 1.0011 799 340.117)"/><path d="M116.725 70.3554 116.725 70.3554C116.217 71.4094 115.078 71.9542 113.98 71.7544L113.857 71.732C112.755 71.5317 111.777 70.9261 111.076 70.0522 101.051 57.5475 92.1567 74.4762 71.7937 51.5494L71.7937 51.5494C86.1974 62.1088 117.392 68.4807 116.837 70.0815 116.806 70.174 116.768 70.2654 116.725 70.3554L116.725 70.3554 116.725 70.3554Z" fill="#E6E6E6" transform="matrix(1 0 0 1.0011 799 340.117)"/><path d="M98.3994 69.5739 98.3994 69.5739C97.8773 69.8637 97.0352 69.823 96.3556 69.5088L96.2785 69.4735C95.5959 69.1583 95.068 68.7158 94.7692 68.2321 90.4962 61.3084 81.6232 65.8016 72.4956 52.677L72.4956 52.677C79.9782 59.813 99.1749 69.0077 98.5226 69.4949 98.4854 69.5227 98.4441 69.5491 98.3994 69.5739L98.3994 69.5739Z" fill="#E6E6E6" transform="matrix(1 0 0 1.0011 799 340.117)"/><path d="M102.517 41.9582 102.517 41.9582C102.388 42.5413 101.8 43.1449 101.114 43.4456L101.036 43.4795C100.348 43.7815 99.6666 43.8838 99.1063 43.7867 91.0898 42.3969 88.5723 52.0187 72.6955 50.153L72.6955 50.153C82.9983 49.2809 102.607 41.0022 102.54 41.8133 102.536 41.86 102.529 41.9084 102.517 41.9582L102.517 41.9582Z" fill="#E6E6E6" transform="matrix(1 0 0 1.0011 799 340.117)"/><path d="M22.288 78.1233 22.288 78.1233C21.7125 77.1051 21.9157 75.8583 22.7066 75.0718L22.7959 74.9828C23.5894 74.1929 24.6452 73.736 25.7624 73.6599 41.7529 72.5707 32.935 55.6022 63.3845 51.979L63.3845 51.979C46.4908 57.7727 23.4457 79.7415 22.4482 78.3724 22.3908 78.2933 22.3372 78.2103 22.288 78.1233L22.288 78.1233Z" fill="#E6E6E6" transform="matrix(1 0 0 1.0011 799 340.117)"/><path d="M86.5951 77.9404 86.5951 77.9404C86.0035 78.3351 85.2444 78.2565 84.7393 77.7967L84.6826 77.745C84.1755 77.2836 83.8589 76.6478 83.7699 75.9592 82.4927 66.1053 72.6075 72.2028 69.2423 53.4977L69.2423 53.4977C73.39 63.7325 87.5258 77.1628 86.7388 77.832 86.6936 77.8703 86.6454 77.9065 86.5951 77.9404L86.5951 77.9404Z" fill="#E6E6E6" transform="matrix(1 0 0 1.0011 799 340.117)"/><path d="M68.686 94.1478 68.686 94.1478C67.7797 94.1552 67.0171 93.5462 66.7884 92.7105L66.7626 92.6161C66.5329 91.7774 66.6278 90.8855 67.0027 90.096 72.3704 78.7925 57.5679 78.3918 66.7437 56.2827L66.7442 56.2827C64.2033 69.9776 70.2182 93.9703 68.9147 94.1329 68.8396 94.1423 68.7631 94.1473 68.686 94.1478L68.686 94.1478Z" fill="#C3B2AA" transform="matrix(1 0 0 1.0011 799 340.117)"/><path d="M35.8916 78.701 35.8916 78.701C35.3079 78.008 35.2904 77.0321 35.7883 76.3226L35.8444 76.2426C36.3438 75.5307 37.091 75.035 37.9384 74.8198 50.0669 71.7425 40.9329 60.0874 63.8125 53.0503L63.8125 53.0503C51.6454 59.8304 37.006 79.7679 36.0493 78.8675 35.9942 78.8158 35.9415 78.7601 35.8916 78.701L35.8916 78.701Z" fill="#C3B2AA" transform="matrix(1 0 0 1.0011 799 340.117)"/><path d="M43.2504 68.5821 43.2504 68.5821C42.8813 68.2371 42.8713 67.7181 43.1877 67.3199L43.2234 67.2751C43.5407 66.8754 44.0149 66.5801 44.5522 66.431 52.2429 64.2913 46.467 58.4622 60.9763 53.7702L60.9763 53.7702C53.2571 57.8826 43.9555 69.1041 43.3502 68.6641 43.3153 68.6388 43.282 68.6114 43.2504 68.5821L43.2504 68.5821Z" fill="#C3B2AA" transform="matrix(1 0 0 1.0011 799 340.117)"/><path d="M54.0058 75.9563 54.0058 75.9563C53.539 75.7629 53.3471 75.2806 53.5037 74.7969L53.5211 74.7422C53.6777 74.2565 54.0178 73.8136 54.4687 73.4849 60.9166 68.779 53.4605 65.3517 65.3954 55.8597L65.3954 55.8597C59.6141 62.423 54.8495 76.1974 54.1281 75.998 54.0864 75.9866 54.0456 75.9727 54.0058 75.9563L54.0058 75.9563Z" fill="#E6E6E6" transform="matrix(1 0 0 1.0011 799 340.117)"/><path d="M22.5406 43.2635 23.7135 46.8731 27.509 46.8731 24.4383 49.1041 25.6112 52.7137 22.5406 50.4831 19.47 52.7137 20.6429 49.1041 17.5723 46.8731 21.3678 46.8731 22.5406 43.2635Z" fill="#C3B2AA" transform="matrix(1 0 0 1.0011 799 340.117)"/><path d="M74.8441 0 76.0169 3.6097 79.8126 3.6097 76.7417 5.8406 77.915 9.45032 74.8441 7.21939 71.7738 9.45032 72.9465 5.8406 69.8757 3.6097 73.6714 3.6097 74.8441 0Z" fill="#E6E6E6" transform="matrix(1 0 0 1.0011 799 340.117)"/><path d="M102.61 38.7434 103.783 42.3531 107.579 42.3531 104.508 44.584 105.681 48.1937 102.61 45.9628 99.5398 48.1937 100.713 44.584 97.6422 42.3531 101.437 42.3531 102.61 38.7434Z" fill="#C3B2AA" transform="matrix(1 0 0 1.0011 799 340.117)"/><path d="M46.4324 78.1323 47.6052 81.742 51.4008 81.742 48.3301 83.9732 49.503 87.583 46.4324 85.3518 43.3618 87.583 44.5346 83.9732 41.4641 81.742 45.2595 81.742 46.4324 78.1323Z" fill="#C3B2AA" transform="matrix(1 0 0 1.0011 799 340.117)"/><path d="M67.7414 38.7434 68.9142 42.3531 72.7094 42.3531 69.639 44.584 70.8118 48.1937 67.7414 45.9628 64.6706 48.1937 65.8433 44.584 62.773 42.3531 66.5682 42.3531 67.7414 38.7434Z" fill="#C3B2AA" transform="matrix(1 0 0 1.0011 799 340.117)"/><path d="M97.0446 0 98.2174 3.6097 102.013 3.6097 98.9422 5.8406 100.115 9.45032 97.0446 7.21939 93.9738 9.45032 95.1465 5.8406 92.0762 3.6097 95.8714 3.6097 97.0446 0Z" fill="#E6E6E6" transform="matrix(1 0 0 1.0011 799 340.117)"/><path d="M20.5513 71.3413 22.0387 74.8332 25.8193 74.4976 22.9579 76.9913 24.4453 80.4833 21.1895 78.5325 18.3281 81.0261 19.1773 77.3269 15.9216 75.3761 19.7021 75.0405 20.5513 71.3413Z" fill="#E6E6E6" transform="matrix(1 0 0 1.0011 799 340.117)"/><path d="M53.0205 4.65023 53.0205 4.65023C53.7051 4.31318 54.4741 4.54055 54.9101 5.15126L54.9593 5.22012C55.3968 5.83285 55.6046 6.60805 55.5683 7.40084 55.0463 18.7479 66.3952 13.6757 66.3768 35.3875L66.3768 35.3875C64.0049 23.0864 51.9138 5.35728 52.8515 4.74639 52.9056 4.7112 52.9618 4.67906 53.0205 4.65023L53.0205 4.65023Z" fill="#C3B2AA" transform="matrix(1 0 0 1.0011 799 340.117)"/><path d="M43.1227 21.4694 43.1227 21.4694C43.4261 21.0905 43.9241 21.0382 44.3308 21.3057L44.3767 21.3359C44.785 21.6041 45.1043 22.0298 45.2887 22.5276 47.928 29.6512 53.0921 23.6877 58.7019 37.0732L58.7019 37.0732C54.1639 30.0852 42.6743 22.1818 43.0512 21.5709 43.0729 21.5357 43.0967 21.5018 43.1227 21.4693L43.1227 21.4693Z" fill="#E6E6E6" transform="matrix(1 0 0 1.0011 799 340.117)"/><path d="M34.3867 42.1755 34.3867 42.1755C34.4283 41.6918 34.8131 41.3716 35.2999 41.3677L35.3548 41.3673C35.8433 41.3632 36.3454 41.5396 36.7754 41.8507 42.9298 46.3045 43.9067 38.4765 56.0113 46.4837L56.0113 46.4837C48.3543 43.1982 34.41 43.0169 34.3837 42.2996 34.3821 42.2583 34.3831 42.2169 34.3867 42.1755L34.3867 42.1755Z" fill="#E6E6E6" transform="matrix(1 0 0 1.0011 799 340.117)"/><path d="M206.254 62.0253 206.254 62.0253C206.517 61.288 207.249 60.8525 207.995 60.9365 208.306 60.9713 208.616 60.9987 208.929 60.9803 216.714 60.5224 226.357 64.9803 236.622 71.0852L236.622 71.0852C227.225 63.4814 218.624 56.7545 208.508 63.6673 207.786 64.161 206.762 63.9865 206.342 63.2189 206.173 62.9107 206.112 62.5413 206.213 62.16 206.225 62.1147 206.238 62.07 206.254 62.0253L206.254 62.0253Z" fill="#E6E6E6" transform="matrix(1 0 0 1.0011 799 340.117)"/><path d="M258.181 43.7863 258.181 43.7863C258.822 44.1955 259.086 44.9736 258.873 45.6672L258.848 45.7455C258.634 46.4418 258.167 47.0269 257.549 47.4119 248.696 52.923 258.945 59.9765 242.561 71.3611L242.561 71.3611C250.495 62.8709 257.021 43.2104 258.013 43.6923 258.07 43.72 258.125 43.7513 258.181 43.7863L258.181 43.7863Z" fill="#E6E6E6" transform="matrix(1 0 0 1.0011 799 340.117)"/><path d="M271.75 86.883 271.75 86.883C271.42 87.5691 270.679 87.9235 269.965 87.7933L269.884 87.7788C269.167 87.6486 268.531 87.2544 268.075 86.6861 261.552 78.5499 255.766 89.5646 242.516 74.6473L242.517 74.6473C251.888 81.5178 272.184 85.6635 271.823 86.705 271.803 86.7652 271.778 86.8243 271.75 86.883L271.75 86.883Z" fill="#E6E6E6" transform="matrix(1 0 0 1.0011 799 340.117)"/><path d="M259.827 86.3749 259.827 86.3749C259.488 86.5633 258.939 86.537 258.497 86.3327L258.447 86.3093C258.003 86.1045 257.66 85.8166 257.465 85.5019 254.685 80.9968 248.912 83.92 242.973 75.3811L242.973 75.3811C247.842 80.0239 260.332 86.006 259.907 86.3232 259.883 86.3416 259.856 86.3585 259.827 86.3749L259.827 86.3749Z" fill="#E6E6E6" transform="matrix(1 0 0 1.0011 799 340.117)"/><path d="M262.506 68.4071 262.506 68.4071C262.422 68.7864 262.039 69.1792 261.593 69.3746L261.543 69.3969C261.095 69.5933 260.651 69.6599 260.287 69.5968 255.071 68.6925 253.433 74.9525 243.103 73.739L243.103 73.739C249.806 73.1712 262.565 67.7847 262.521 68.3127 262.518 68.343 262.514 68.3743 262.506 68.4071L262.506 68.4071Z" fill="#E6E6E6" transform="matrix(1 0 0 1.0011 799 340.117)"/><path d="M210.306 91.9375 210.306 91.9375C209.932 91.2748 210.064 90.4639 210.579 89.9519L210.637 89.8942C211.153 89.3797 211.84 89.0829 212.567 89.0331 222.971 88.3242 217.233 77.2841 237.045 74.9267L237.045 74.9267C226.053 78.6965 211.059 92.9904 210.411 92.0995 210.373 92.0478 210.338 91.9941 210.306 91.9375L210.306 91.9375Z" fill="#E6E6E6" transform="matrix(1 0 0 1.0011 799 340.117)"/><path d="M252.147 91.8181 252.147 91.8181C251.762 92.0752 251.268 92.024 250.939 91.7247L250.902 91.6909C250.572 91.3911 250.367 90.977 250.308 90.5291 249.478 84.1179 243.046 88.0851 240.856 75.915L240.856 75.915C243.555 82.5742 252.752 91.3126 252.24 91.7476 252.211 91.7729 252.18 91.7963 252.147 91.8181L252.147 91.8181Z" fill="#E6E6E6" transform="matrix(1 0 0 1.0011 799 340.117)"/><path d="M240.494 102.364 240.494 102.364C239.905 102.369 239.408 101.972 239.26 101.428L239.243 101.367C239.093 100.821 239.155 100.241 239.399 99.7272 242.891 92.373 233.26 92.112 239.231 77.7271L239.231 77.7271C237.578 86.6374 241.492 102.248 240.643 102.354 240.594 102.36 240.544 102.363 240.494 102.364L240.494 102.364Z" fill="#C3B2AA" transform="matrix(1 0 0 1.0011 799 340.117)"/><path d="M219.157 92.3133 219.157 92.3133C218.777 91.8624 218.766 91.227 219.09 90.7657L219.126 90.7135C219.451 90.2502 219.937 89.928 220.489 89.7878 228.38 87.7858 222.437 80.2024 237.323 75.6237L237.323 75.6237C229.407 80.0353 219.882 93.0073 219.26 92.4217 219.224 92.3879 219.19 92.3516 219.157 92.3133L219.157 92.3133Z" fill="#C3B2AA" transform="matrix(1 0 0 1.0011 799 340.117)"/><path d="M223.945 85.7296 223.945 85.7296C223.705 85.5049 223.698 85.1674 223.904 84.9083L223.927 84.879C224.134 84.619 224.442 84.4271 224.792 84.3297 229.796 82.9377 226.038 79.1449 235.478 76.092L235.478 76.092C230.456 78.7681 224.404 86.0692 224.01 85.7828 223.987 85.7664 223.966 85.7485 223.945 85.7296L223.945 85.7296Z" fill="#C3B2AA" transform="matrix(1 0 0 1.0011 799 340.117)"/><path d="M230.943 90.5276 230.943 90.5276C230.639 90.4018 230.515 90.0876 230.616 89.7729L230.627 89.7376C230.729 89.4214 230.951 89.1331 231.244 88.9193 235.439 85.8574 230.588 83.6272 238.354 77.4517L238.354 77.4517C234.592 81.7221 231.492 90.6842 231.023 90.5544 230.995 90.547 230.969 90.538 230.943 90.5276L230.943 90.5276Z" fill="#E6E6E6" transform="matrix(1 0 0 1.0011 799 340.117)"/><path d="M210.471 69.2562 211.234 71.6047 213.703 71.6047 211.705 73.0564 212.468 75.4049 210.471 73.9533 208.473 75.4049 209.236 73.0564 207.238 71.6047 209.708 71.6047 210.471 69.2562Z" fill="#C3B2AA" transform="matrix(1 0 0 1.0011 799 340.117)"/><path d="M244.501 41.1073 245.264 43.4559 247.734 43.4559 245.736 44.9074 246.499 47.256 244.501 45.8045 242.503 47.256 243.266 44.9074 241.269 43.4559 243.738 43.4559 244.501 41.1073Z" fill="#E6E6E6" transform="matrix(1 0 0 1.0011 799 340.117)"/><path d="M262.567 66.3151 263.33 68.6636 265.799 68.6636 263.801 70.1153 264.565 72.4638 262.567 71.0126 260.569 72.4638 261.332 70.1153 259.334 68.6636 261.804 68.6636 262.567 66.3151Z" fill="#C3B2AA" transform="matrix(1 0 0 1.0011 799 340.117)"/><path d="M226.015 91.9434 226.779 94.2919 229.248 94.2919 227.25 95.7436 228.013 98.0921 226.015 96.6405 224.017 98.0921 224.781 95.7436 222.783 94.2919 225.252 94.2919 226.015 91.9434Z" fill="#C3B2AA" transform="matrix(1 0 0 1.0011 799 340.117)"/><path d="M239.88 66.3151 240.643 68.6636 243.112 68.6636 241.115 70.1153 241.878 72.4638 239.88 71.0126 237.882 72.4638 238.645 70.1153 236.647 68.6636 239.117 68.6636 239.88 66.3151Z" fill="#C3B2AA" transform="matrix(1 0 0 1.0011 799 340.117)"/><path d="M258.945 41.1073 259.708 43.4559 262.178 43.4559 260.18 44.9074 260.943 47.256 258.945 45.8045 256.948 47.256 257.711 44.9074 255.713 43.4559 258.182 43.4559 258.945 41.1073Z" fill="#E6E6E6" transform="matrix(1 0 0 1.0011 799 340.117)"/><path d="M209.176 87.5248 210.144 89.7968 212.604 89.5785 210.742 91.2007 211.71 93.4726 209.591 92.2034 207.729 93.8261 208.282 91.4189 206.164 90.1497 208.624 89.9315 209.176 87.5248Z" fill="#E6E6E6" transform="matrix(1 0 0 1.0011 799 340.117)"/><path d="M230.302 44.1329 230.302 44.1329C230.747 43.9136 231.248 44.0615 231.531 44.4589L231.563 44.5037C231.848 44.9024 231.983 45.4067 231.959 45.9225 231.62 53.3053 239.004 50.0053 238.992 64.1317L238.992 64.1317C237.449 56.1281 229.582 44.5929 230.192 44.1955 230.227 44.1726 230.264 44.1517 230.302 44.1329L230.302 44.1329Z" fill="#C3B2AA" transform="matrix(1 0 0 1.0011 799 340.117)"/><path d="M223.862 55.0762 223.862 55.0762C224.059 54.8296 224.383 54.7958 224.648 54.9698L224.678 54.9892C224.944 55.1637 225.151 55.4406 225.271 55.7647 226.988 60.3996 230.349 56.5194 233.998 65.2284L233.998 65.2284C231.046 60.682 223.57 55.5395 223.816 55.1423 223.829 55.1194 223.845 55.0971 223.862 55.0762L223.862 55.0762Z" fill="#E6E6E6" transform="matrix(1 0 0 1.0011 799 340.117)"/><path d="M218.178 68.5483 218.178 68.5483C218.205 68.2336 218.455 68.0253 218.772 68.0228L218.808 68.0223C219.125 68.0198 219.453 68.1347 219.732 68.337 223.736 71.2349 224.372 66.1416 232.248 71.3512L232.248 71.3512C227.266 69.2135 218.193 69.0957 218.176 68.6288 218.175 68.602 218.175 68.5751 218.178 68.5483L218.178 68.5483Z" fill="#E6E6E6" transform="matrix(1 0 0 1.0011 799 340.117)"/></g></svg>