<svg width="280" height="52" xmlns="http://www.w3.org/2000/svg" xmlns:xlink="http://www.w3.org/1999/xlink" xml:space="preserve" overflow="hidden"><defs><linearGradient x1="6.76978" y1="24.518" x2="44.8266" y2="24.518" gradientUnits="userSpaceOnUse" spreadMethod="pad" id="fill0"><stop offset="0" stop-color="#BBBF00" stop-opacity="1"/><stop offset="0.2826" stop-color="#C6DA05" stop-opacity="1"/><stop offset="0.353" stop-color="#A5D21E" stop-opacity="1"/><stop offset="0.4705" stop-color="#73C543" stop-opacity="1"/><stop offset="0.5869" stop-color="#4ABB61" stop-opacity="1"/><stop offset="0.6998" stop-color="#29B279" stop-opacity="1"/><stop offset="0.8084" stop-color="#13AD8A" stop-opacity="1"/><stop offset="0.9106" stop-color="#05A994" stop-opacity="1"/><stop offset="1" stop-color="#00A898" stop-opacity="1"/></linearGradient></defs><g transform="translate(240 -424)"><g><g><g><g><path d="M6.72522 32.0426C5.42116 29.7884 5.0672 27.2362 5.0672 24.5163 5.0672 21.815 5.42116 19.2814 6.70659 17.0273 7.24684 14.177 8.12242 11.6434 9.27744 9.501 4.54558 13.0592 1.88157 18.4617 1.88157 24.5163 1.88157 30.5895 4.56421 36.0293 9.35196 39.5875 8.14105 37.3147 7.26547 34.7997 6.72522 32.0426Z" fill="#000000" fill-rule="nonzero" fill-opacity="1" transform="matrix(1 0 0 1.00147 -240 425)"/><path d="M16.3752 42.177C18.4431 42.7917 20.6414 43.1457 22.9328 43.1457 25.336 43.1457 27.6647 42.7731 29.8257 42.0838 30.9248 40.9288 31.9308 39.4012 32.7319 37.352 29.9188 39.0286 26.5469 40.016 22.9328 40.016 19.3932 40.016 16.0958 39.0845 13.32 37.4637 14.177 39.4571 15.2202 41.022 16.3752 42.177Z" fill="#000000" fill-rule="nonzero" fill-opacity="1" transform="matrix(1 0 0 1.00147 -240 425)"/><path d="M22.9328 9.01663C26.6959 9.01663 30.1796 10.0785 33.0486 11.8856 32.6201 10.7305 32.1171 9.72455 31.5396 8.90486 31.0366 8.19694 30.4963 7.56354 29.9188 6.98603 27.7206 6.27811 25.3733 5.88689 22.9142 5.88689 20.6041 5.88689 18.3686 6.24085 16.2821 6.87425 15.7232 7.43313 15.2016 8.06653 14.6986 8.77445 14.1025 9.61277 13.5622 10.6001 13.1151 11.6993 15.9468 10.004 19.3187 9.01663 22.9328 9.01663Z" fill="#000000" fill-rule="nonzero" fill-opacity="1" transform="matrix(1 0 0 1.00147 -240 425)"/><path d="M39.9414 24.7585C37.2588 24.7585 34.986 27.0126 34.9674 29.6953 33.682 43.4252 27.1989 45.9587 22.9514 45.9587 18.9088 45.9587 14.4378 43.3506 12.1836 36.0293 12.4631 36.2342 12.7611 36.4205 13.0592 36.6068 17.6979 39.2708 23.8456 37.2774 25.9135 33.5329 29.1364 27.6833 27.497 17.0645 25.1497 11.8483 22.7092 21.666 7.9175 23.9202 15.1643 34.334 19.9707 30.7572 23.4358 23.9015 23.4358 23.9015 21.1257 30.7013 17.6793 34.1477 15.5556 35.7312 13.1896 33.6261 11.0659 28.149 10.7119 23.7339 10.8051 16.5802 12.016 11.3453 14.3633 8.06653 16.7292 4.73187 19.6168 3.05522 22.9514 3.05522 26.4724 3.05522 29.4904 4.78776 31.9308 8.17831 33.5888 10.5256 34.6321 14.2515 35.0233 19.3746 35.0419 22.0572 37.2774 24.3114 39.9601 24.3114 42.6427 24.3114 44.8224 22.0572 44.841 19.3746 44.841 15.6487 40.3513 12.6121 37.4265 10.1903 38.3579 12.2395 39.01 14.6613 39.4012 17.4744 39.9787 17.4744 40.9102 18.6294 40.9102 19.3746 40.8916 19.8962 40.4631 20.3992 39.9414 20.3992 39.4198 20.3992 38.8982 19.8962 38.8796 19.3746 38.3766 14.0093 37.0353 9.89222 34.8184 7.02329 31.8749 3.167 27.8882 1.24817 22.9514 1.24817 13.32 1.24817 6.7811 10.2275 6.7811 24.5349 6.7811 32.0426 8.56953 38.1344 12.2395 42.9408 14.68 46.145 18.2009 47.8217 22.9514 47.8217 32.4524 47.8217 37.6128 40.3327 38.8237 29.7139 38.8423 29.1923 39.4198 28.6893 39.9414 28.6893 40.4631 28.6893 40.8916 29.1923 40.9102 29.7139 40.9102 30.5522 39.7924 31.8935 39.2522 31.8935 38.7678 34.6507 38.004 37.147 36.9235 39.3081 40.0905 36.8303 44.8224 33.5329 44.8224 29.7139 44.8037 27.0126 42.6241 24.7585 39.9414 24.7585Z" fill="url(#fill0)" fill-rule="nonzero" transform="matrix(1 0 0 1.00147 -240 425)"/><path d="M55.2362 16.0585C54.3792 14.6613 53.4291 13.2641 52.6467 12.2395L53.1497 11.6806C54.3047 12.3886 55.7764 13.525 56.7824 14.6241L55.2362 16.0585ZM56.0745 16.8037 56.8011 17.0273C56.3912 19.9335 55.5715 23.8829 54.994 25.8204L52.8889 24.8889C53.9321 22.8583 55.1244 19.7099 56.0745 16.8037ZM53.8017 6.76248C54.845 7.2841 56.3353 8.32735 57.4717 9.48237L55.9814 10.8796C55.1617 9.6314 54.1371 8.32735 53.336 7.37725L53.8017 6.76248ZM71.3134 16.5429 71.3134 17.4744 69.2455 17.4744 69.2455 21.6101 67.4012 21.6101 67.4012 20.6228 64.6254 20.6228 64.6254 24.1065C64.6254 25.8949 63.0047 27.1803 59.1856 24.9634L59.3719 24.2369C62.3899 24.7957 62.7438 24.6281 62.7438 23.5662L62.7438 20.6228 58.3473 20.6228 58.3473 19.6913 62.7438 19.6913 62.7438 17.4744 57.5276 17.4744 57.5276 16.5429 62.7438 16.5429 62.7438 14.4937 58.5336 14.4937 58.5336 13.5622 66.5443 13.5622 66.0413 13.1524C66.6933 12.2395 67.4943 10.4325 67.9973 8.998L69.7858 9.89222C68.9847 11.2149 67.513 12.8543 66.6933 13.5622L69.2269 13.5622 69.2269 16.5429 71.3134 16.5429ZM58.2914 9.42648 58.2169 8.6813C62.185 8.49501 66.153 7.67532 68.5003 6.76248L70.4378 8.45775C68.314 8.97937 61.9242 9.51963 58.2914 9.42648ZM59.1297 9.55689C59.9867 10.3021 61.0486 11.5875 61.5888 12.5562L59.9681 13.3759C59.5768 12.1836 59.1297 11.159 58.5336 9.92947L59.1297 9.55689ZM62.4271 9.68729 63.1164 9.37059C63.8802 10.2462 64.7372 11.6061 65.2216 12.7798L63.5076 13.3387C63.2655 12.165 62.837 10.8982 62.4271 9.68729ZM64.6254 16.5429 67.4012 16.5429 67.4012 14.4937 64.6254 14.4937 64.6254 16.5429ZM67.4012 19.6913 67.4012 17.4744 64.6254 17.4744 64.6254 19.6913 67.4012 19.6913Z" fill="#000000" fill-rule="nonzero" fill-opacity="1" transform="matrix(1 0 0 1.00147 -240 425)"/><path d="M94.7305 17.9774 93.6128 20.0639C91.5635 19.6168 88.4152 18.2941 85.4903 15.5183 83.3293 17.6048 79.5662 19.3187 75.8776 20.008L75.6913 19.3001C79.0259 18.2754 81.3733 16.8969 83.143 15.2575L78.9514 15.2575 78.9514 14.3819 83.2735 14.3819 83.2735 15.1271C83.5902 14.8104 83.9069 14.4937 84.1863 14.1583L84.1863 11.1218 78.3739 11.1218 78.3739 13.8975 76.6227 13.8975 76.6227 10.1903 84.2049 10.1903 84.2049 8.62542 77.9268 8.62542 77.9268 7.69395 92.346 7.69395 92.346 8.62542 86.012 8.62542 86.012 10.1903 93.7059 10.1903 93.7059 13.8975 91.9548 13.8975 91.9548 11.1218 86.012 11.1218 86.012 14.2888 86.4591 14.4564 86.0865 14.9408C88.5828 16.5615 91.2841 17.4185 94.7305 17.9774ZM83.1803 12.2768 83.1803 13.1524 79.1563 13.1524 79.1563 12.2768 83.1803 12.2768ZM89.0672 19.5422 91.0792 20.9022C90.1663 21.8709 88.5269 22.9328 86.9807 23.6593 87.819 24.0133 88.5642 24.3673 89.179 24.7399L87.9867 26.5283C86.1237 25.1311 83.7578 23.8643 81.0007 22.523L81.2801 21.8523C82.7891 22.2249 84.4285 22.7092 85.9375 23.2495 86.7944 22.5788 87.8377 21.5729 88.4152 20.7718L79.5848 20.7718 79.5848 19.8403 85.8071 19.8403C85.006 18.9647 84.0931 18.0892 83.4225 17.5862L83.8323 16.9341C84.7079 17.2136 86.1983 17.9774 87.2415 18.7226L86.31 19.8217 88.676 19.8217 89.0672 19.5422ZM91.1537 13.1337 86.8689 13.1337 86.8689 12.2582 91.1537 12.2582 91.1537 13.1337ZM91.3027 15.2389 86.9807 15.2389 86.9807 14.3633 91.3027 14.3633 91.3027 15.2389Z" fill="#000000" fill-rule="nonzero" fill-opacity="1" transform="matrix(1 0 0 1.00147 -240 425)"/><path d="M105.275 22.9142 102.145 22.9142 102.145 25.1124 100.431 25.1124 100.431 17.7725C99.9095 18.8157 99.4252 19.5795 99.0898 19.9707L98.5309 19.5236C99.7232 17.6607 100.897 13.4877 101.12 9.33333L99.1085 9.33333 99.1085 8.40186 106.02 8.40186 106.02 9.33333 103.021 9.33333C102.89 11.01 102.443 12.817 101.828 14.4937L105.275 14.4937 105.275 22.9142ZM103.561 15.4251 102.145 15.4251 102.145 21.9827 103.561 21.9827 103.561 15.4251ZM117.552 24.2927 116.21 26.3047C115.055 25.5782 113.248 23.1377 112.708 19.6913 112.037 22.821 110.491 25.0193 107.045 26.4165L106.709 25.8204C109.131 24.5349 110.249 22.8769 110.808 20.8277L109.187 21.4983C108.945 20.4178 108.535 18.8716 108.069 17.5489 107.957 20.4551 107.343 24.0319 104.399 26.342L103.915 25.8204C106.914 22.5416 106.188 17.4371 106.206 14.0093L117.16 14.0093 117.16 14.9408 108.051 14.9408C108.069 15.6673 108.088 16.5243 108.051 17.4744L108.684 17.1577C109.541 18.2382 110.417 19.7285 110.826 20.7532 111.031 19.8589 111.162 18.8716 111.199 17.8097 111.236 17.1391 111.236 16.4125 111.236 15.6673L113.136 15.7418C113.099 16.6361 113.062 17.3812 112.987 18.2009 113.155 18.9647 113.397 19.654 113.695 20.3061 114.291 19.3187 114.85 18.0705 115.242 17.0459L116.993 18.0333C115.968 19.3187 115.148 20.157 114.049 20.9953 114.943 22.4671 116.136 23.5662 117.552 24.2927ZM116.49 12.5562 106.653 12.5562 106.653 8.06653 108.33 8.06653 108.33 11.6061 110.64 11.6061 110.64 6.93014 112.391 6.93014 112.391 11.6061 114.813 11.6061 114.813 8.12242 116.49 8.12242 116.49 12.5562Z" fill="#000000" fill-rule="nonzero" fill-opacity="1" transform="matrix(1 0 0 1.00147 -240 425)"/><path d="M126.736 18.0705 126.736 24.4045C126.736 26.0067 124.836 27.0313 121.687 25.0007L121.892 24.3114C124.463 24.8889 124.947 24.7026 124.947 23.7339L124.947 18.8343C124.09 19.1697 123.234 19.4305 122.358 19.7099L121.762 17.6607C122.917 17.493 123.96 17.344 124.947 17.1391L124.947 12.7611 121.967 12.7611 121.967 11.8297 124.947 11.8297 124.947 6.98603 126.736 6.98603 126.736 11.8297 129.195 11.8297 129.195 12.7611 126.736 12.7611 126.736 16.7851C127.332 16.6174 127.947 16.4498 128.58 16.2635L128.86 16.9714C128.133 17.3812 127.425 17.7725 126.736 18.0705ZM139.348 26.1557C137.094 25.4105 135.361 24.3486 134.057 23.0446 132.325 24.5536 130.126 25.69 127.462 26.3047L127.22 25.5968C129.605 24.7212 131.579 23.5103 133.107 21.9827 131.71 20.2129 130.872 18.0892 130.369 15.7418L128.971 15.7418 128.971 14.8104 132.902 14.8104 132.902 11.3639 128.729 11.3639 128.729 10.4325 132.902 10.4325 132.902 6.98603 134.784 6.98603 134.784 10.4325 139.59 10.4325 139.59 11.3639 134.784 11.3639 134.784 14.8104 136.349 14.8104 136.852 14.475 138.752 15.4065C138.118 17.7166 137.001 19.9335 135.324 21.815 136.703 22.7092 138.379 23.3799 140.484 23.9202L139.348 26.1557ZM131.114 15.7418C131.803 17.9774 132.753 19.5981 134.094 20.8463 135.268 19.3932 136.069 17.6793 136.516 15.7418L131.114 15.7418Z" fill="#000000" fill-rule="nonzero" fill-opacity="1" transform="matrix(1 0 0 1.00147 -240 425)"/><path d="M158.052 12.9102 154.568 12.9102 154.568 26.2861 152.761 26.2861 152.761 12.9102 149.911 12.9102C149.557 13.6367 149.166 14.4005 148.719 15.0712L148.719 26.2675 146.967 26.2675 146.967 17.4558C146.278 18.2568 145.57 18.9461 144.918 19.4118L144.415 18.8716C146.222 16.7851 147.992 13.2455 148.774 10.358L150.563 11.1031C150.488 11.4012 150.377 11.662 150.265 11.9601L152.761 11.9601 152.761 6.98603 154.55 6.98603 154.55 11.9787 158.033 11.9787 158.033 12.9102ZM145.049 13.5063 144.527 12.9661C146.055 11.2149 147.172 8.66267 147.731 6.74385L149.576 7.45176C148.588 9.79907 146.669 12.2768 145.049 13.5063ZM150.153 14.3446 151.83 14.3446C151.83 19.9335 151.606 22.2808 149.967 24.2741L149.333 23.8643C150.488 21.6846 150.153 19.5981 150.153 14.3446ZM156.152 11.3453C155.928 10.2462 155.462 8.79308 155.164 8.01064L155.798 7.65669C156.543 8.38323 157.344 9.66866 157.754 10.6747L156.152 11.3453ZM157.679 22.0572C155.649 22.0572 155.481 21.7591 155.481 19.8031L155.481 14.4005 157.102 14.4005 157.102 19.7658C157.102 20.4178 157.083 20.7532 157.81 20.7345 158.35 20.7159 158.536 20.6228 158.89 20.3247L159.412 21.4983C159.077 21.8337 158.48 22.0572 157.679 22.0572ZM163.343 13.5063 163.343 14.4378 161.629 14.4378 161.629 24.4045C161.629 26.4724 159.933 27.1803 156.766 25.4291L156.934 24.684C159.617 25.2056 159.878 25.1311 159.878 23.7711L159.878 14.4564 157.735 14.4564 157.735 13.525 163.343 13.525ZM162.951 9.29607 157.903 9.29607 157.903 8.3646 162.951 8.3646 162.951 9.29607Z" fill="#000000" fill-rule="nonzero" fill-opacity="1" transform="matrix(1 0 0 1.00147 -240 425)"/><path d="M173.98 21.1816 176.085 22.2994C174.036 24.1996 170.478 25.8017 167.776 26.5096L167.478 25.8017C170.385 24.4604 172.415 23.0446 173.98 21.1816ZM186.201 20.9767 167.758 20.9767 167.758 20.0452 169.528 20.0452C169.416 16.0399 169.285 12.6121 169.062 8.56953L170.757 8.79308C171.67 8.15968 172.378 7.50765 173.123 6.72522L174.651 8.10379C173.626 8.69993 172.098 9.3147 170.981 9.66866L171.037 11.9787 173.756 11.9787 173.756 12.8543 171.092 12.8543C171.111 13.7858 171.13 14.7545 171.167 15.686L173.794 15.686 173.794 16.5802 171.186 16.5802C171.223 17.7352 171.242 18.8902 171.297 20.0452L173.961 20.0452C174.241 18.1823 174.409 16.8037 174.595 14.8849L176.346 15.2016C176.16 17.0459 175.992 18.2941 175.713 20.0452L177.408 20.0452C177.576 18.2382 177.743 15.5369 177.874 13.5808L176.067 13.5808C176.029 13.8789 175.955 14.1397 175.917 14.4192L174.204 14.1956C174.558 11.9042 174.912 9.22156 175.135 6.93014L176.886 7.13506C176.83 7.88024 176.719 8.71856 176.607 9.57552L179.96 9.57552 179.96 10.507 176.476 10.507C176.402 11.2149 176.29 11.9415 176.178 12.6494L179.699 12.6494C179.569 14.7545 179.364 17.996 179.159 20.0266L182.326 20.0266 182.531 16.7478 180.221 16.7478 180.221 15.8723 182.587 15.8723 182.773 13.0592 180.314 13.0592 180.314 12.1836 182.848 12.1836 183.034 9.12841 180.277 9.12841 180.277 8.19694 184.822 8.19694 184.096 20.0266 186.201 20.0266 186.201 20.9767ZM186.48 24.4977 185.102 26.5469C183.164 24.8703 180.854 23.3985 178.377 22.0758L178.675 21.3679C181.283 22.0386 183.816 22.9142 186.48 24.4977Z" fill="#000000" fill-rule="nonzero" fill-opacity="1" transform="matrix(1 0 0 1.00147 -240 425)"/><path d="M192.013 7.61943 198.087 7.61943 198.087 23.7898C198.087 26.6214 195.795 26.9568 193.261 25.0193L193.504 24.2927C195.981 25.0007 196.279 24.684 196.279 23.4172L196.279 18.35 193.783 18.35C193.634 21.9268 193.112 24.2741 191.045 26.4538L190.467 25.9321C191.995 23.3799 192.013 20.4737 192.013 14.9967L192.013 7.61943ZM196.298 17.4558 196.298 13.3759 193.839 13.3759 193.839 14.4005C193.839 15.4997 193.839 16.5057 193.82 17.4558L196.298 17.4558ZM193.839 8.58816 193.839 12.4817 196.298 12.4817 196.298 8.58816 193.839 8.58816ZM209.45 24.2927 208.09 26.3047C207.103 25.5782 206.079 24.6281 205.147 23.3799 204.178 24.5349 203.079 25.4478 201.85 26.1371L201.44 25.485C202.595 24.5908 203.564 23.4544 204.365 22.1876 203.452 20.6414 202.669 18.7226 202.222 16.3194L201.403 16.3194 201.403 26.2675 199.558 26.2675 199.558 7.69395 207.886 7.69395C207.904 10.004 207.848 10.8423 207.737 11.9228 207.457 14.6613 204.979 14.5496 202.762 12.7239L203.042 12.0346C205.408 12.7425 205.706 12.5003 205.799 11.6248 205.874 10.8051 205.929 10.2648 205.929 8.64405L201.403 8.64405 201.403 15.4438 206.321 15.4438 206.731 15.0526 208.538 15.7046C208.146 18.1637 207.308 20.2874 206.153 22.0386 207.196 23.0073 208.314 23.7152 209.45 24.2927ZM205.147 20.809C205.818 19.3932 206.265 17.8656 206.488 16.3194L202.986 16.3194C203.508 18.2009 204.271 19.6727 205.147 20.809Z" fill="#000000" fill-rule="nonzero" fill-opacity="1" transform="matrix(1 0 0 1.00147 -240 425)"/><path d="M219.585 17.344C220.032 16.5988 220.405 15.6673 220.628 14.8476L219.38 14.8476 219.38 24.1996C219.38 25.839 218.113 27.3293 214.574 25.1311L214.778 24.4232C217.107 24.9448 217.61 24.8144 217.61 23.827L217.61 18.4245C216.79 20.1198 215.635 21.7219 213.903 23.2309L213.4 22.6347C215.449 20.3619 216.716 17.7538 217.405 14.8663L213.698 14.8663 213.698 13.9348 218.094 13.9348C217.275 12.5749 216.492 11.5316 215.524 10.3952L215.989 9.87359C216.753 10.3393 217.48 10.8609 218.132 11.4198 218.858 10.656 219.473 9.85496 219.976 8.94212L214.182 8.94212 214.182 8.01064 220.051 8.01064 220.572 7.69395 222.342 8.84897C221.355 10.1344 220.106 11.1404 218.765 11.9973 219.119 12.3327 219.473 12.7053 219.827 13.0965L218.747 13.9534 220.609 13.9534 221.15 13.5808 222.864 14.5682C222.193 15.9468 221.057 17.0459 220.125 17.847L219.585 17.344ZM226.757 18.4245 231.21 18.4245C231.079 21.1816 230.874 23.175 230.539 24.5722 230.166 26.1743 228.322 26.845 225.49 24.5722L225.807 23.8829C228.229 24.7585 228.657 24.5908 228.881 23.6593 229.086 22.672 229.272 21.0699 229.347 19.356L226.589 19.356C225.751 23.2122 223.572 25.485 220.255 26.4724L219.939 25.8017C222.864 24.3859 224.224 22.4484 224.764 19.356L220.926 19.356 220.926 18.4245 224.913 18.4245C224.969 17.847 225.043 17.2136 225.062 16.5429L226.962 16.6547C226.888 17.2881 226.832 17.8656 226.757 18.4245ZM232.29 15.4438 231.321 17.4185C229.626 16.9155 228.136 16.189 226.869 15.0526 225.36 16.2635 223.497 17.1204 221.429 17.6979L221.187 16.99C223.05 16.3194 224.671 15.3134 225.919 14.0652 225.23 13.2455 224.652 12.2768 224.149 11.1031 223.646 11.7924 223.05 12.4817 222.361 13.1337L221.82 12.668C223.18 10.6001 223.795 8.90486 224.279 6.68796L226.142 7.20958C225.937 7.86161 225.658 8.53227 225.341 9.16567L231.917 9.16567 231.917 10.0971 230.129 10.0971C229.719 11.662 228.955 12.9847 227.968 14.0652 229.03 14.68 230.427 15.0898 232.29 15.4438ZM226.664 13.2455C227.391 12.3327 227.912 11.2894 228.192 10.1344L224.82 10.1344 224.633 10.4511C225.211 11.6061 225.844 12.5003 226.664 13.2455Z" fill="#000000" fill-rule="nonzero" fill-opacity="1" transform="matrix(1 0 0 1.00147 -240 425)"/><path d="M244.269 9.10978 243.002 9.10978 243.002 26.3234 241.288 26.3234 241.288 20.7904C239.649 21.9827 238.214 22.672 237.283 23.0818L236.463 21.0699C236.947 20.9953 237.45 20.9022 237.972 20.7718L237.972 9.10978 236.798 9.10978 236.798 8.17831 244.269 8.17831 244.269 9.10978ZM239.667 11.9601 241.269 11.9601 241.269 9.10978 239.667 9.10978 239.667 11.9601ZM239.667 15.9468 241.269 15.9468 241.269 12.9102 239.667 12.9102 239.667 15.9468ZM241.269 19.8031 241.269 16.8969 239.667 16.8969 239.667 20.3619C240.189 20.1943 240.711 20.0266 241.269 19.8031ZM247.678 13.1337C248.33 14.0093 248.684 14.8476 249.038 15.984L247.641 16.338C247.585 15.9281 247.529 15.5183 247.473 15.1643 246.057 15.8164 244.939 16.2076 243.766 16.4498L243.319 14.7731C243.71 14.7731 244.082 14.7731 244.474 14.7545 245.144 13.9162 245.703 13.0406 246.188 12.1091 245.219 12.4817 244.381 12.7611 243.691 12.9102L243.337 11.1776C243.673 11.1963 244.027 11.2149 244.399 11.2149 245.088 9.61277 245.48 8.3646 245.778 6.87425L247.454 7.56354C246.784 9.01663 246.206 10.0413 245.368 11.1776 245.815 11.159 246.244 11.1404 246.728 11.0659 246.97 10.4884 247.231 9.85496 247.454 9.20293L249.075 10.0226C247.864 11.9787 246.802 13.3945 245.48 14.68 246.057 14.6241 246.672 14.5123 247.343 14.3819 247.268 14.0466 247.175 13.6926 247.063 13.3387L247.678 13.1337ZM246.877 16.9528 248.554 16.9528 248.554 18.4804C248.554 22.5975 248.218 25.1311 244.008 26.491L243.71 25.839C245.685 24.8144 246.448 23.7898 246.709 22.1317L245.666 22.1317 245.666 23.2495 244.045 23.2495 244.045 17.4558 245.666 17.4558 245.666 21.1816 246.821 21.1816C246.877 20.4178 246.877 19.4864 246.877 18.4245L246.877 16.9528ZM249.951 14.7545C250.547 13.9162 251.05 13.0406 251.534 12.0905 250.51 12.4631 249.783 12.7239 249.057 12.8357L248.703 11.1963C249.001 11.2149 249.299 11.2335 249.597 11.2335 250.286 9.61277 250.659 8.30872 250.957 6.87425L252.652 7.50765C251.963 8.998 251.329 10.0413 250.491 11.2149 250.975 11.1963 251.478 11.1776 252 11.1031 252.242 10.507 252.503 9.87359 252.727 9.20293L254.329 10.004C253.211 11.9601 252.205 13.3759 250.901 14.7172 251.59 14.6613 252.279 14.5682 253.062 14.4378 252.987 14.0279 252.876 13.6181 252.745 13.2269L253.379 13.0033C254.068 13.8975 254.496 14.8476 254.813 15.984L253.379 16.3566C253.341 15.9468 253.267 15.5183 253.211 15.1457 251.721 15.835 250.733 16.1331 249.504 16.3752L249.057 14.7917C249.373 14.8104 249.671 14.7731 249.951 14.7545ZM252.484 17.2881 254.105 17.2881 254.105 23.2122 252.484 23.2122 252.484 22.1317 251.106 22.1317 251.106 26.2861 249.429 26.2861 249.429 16.9528 251.106 16.9528 251.106 21.1816 252.484 21.1816 252.484 17.2881Z" fill="#000000" fill-rule="nonzero" fill-opacity="1" transform="matrix(1 0 0 1.00147 -240 425)"/><path d="M277.895 24.5536 277.895 25.485 259.601 25.485 259.601 24.5536 261.892 24.5536 261.892 19.3001 275.697 19.3001 275.697 24.5536 277.895 24.5536ZM262.786 17.7538 260.998 17.7538 260.998 7.9175 267.649 7.9175 267.649 16.1517 262.786 16.1517 262.786 17.7538ZM262.786 11.4571 265.898 11.4571 265.898 8.84897 262.786 8.84897 262.786 11.4571ZM262.786 15.2202 265.898 15.2202 265.898 12.3699 262.786 12.3699 262.786 15.2202ZM263.681 24.5536 265.972 24.5536 265.972 20.2315 263.681 20.2315 263.681 24.5536ZM266.736 18.5921C268.711 16.5429 268.971 15.2575 268.971 10.4884L268.971 7.67532 276.572 7.67532 276.572 16.9341C276.572 18.6667 275.026 19.3746 271.654 17.7911L271.84 17.0832C274.281 17.4558 274.784 17.3067 274.784 16.2448L274.784 14.6427 270.555 14.6427C270.108 16.3752 269.195 17.8283 267.239 19.151L266.736 18.5921ZM269.884 20.2315 267.686 20.2315 267.686 24.5536 269.884 24.5536 269.884 20.2315ZM274.765 13.7299 274.765 11.6061 270.872 11.6061C270.872 12.3513 270.816 13.0592 270.704 13.7299L274.765 13.7299ZM270.89 10.5815 270.89 10.7119 274.765 10.7119 274.765 8.60679 270.89 8.60679 270.89 10.5815ZM273.908 20.2315 271.598 20.2315 271.598 24.5536 273.908 24.5536 273.908 20.2315Z" fill="#000000" fill-rule="nonzero" fill-opacity="1" transform="matrix(1 0 0 1.00147 -240 425)"/><path d="M52.8889 41.1151 52.8889 40.3699 56.0373 36.4391C56.2608 36.1597 56.4657 35.9175 56.6707 35.7126L53.2428 35.7126 53.2428 34.986 57.6394 34.986 57.6394 35.7126 54.1929 39.9601 53.8204 40.3886 57.7325 40.3886 57.7325 41.1151 52.8889 41.1151Z" fill="#000000" fill-rule="nonzero" fill-opacity="1" transform="matrix(1 0 0 1.00147 -240 425)"/><path d="M61.5702 39.6993 62.3526 39.7924C62.2222 40.2395 61.9987 40.5935 61.6633 40.8543 61.328 41.0965 60.8995 41.2269 60.3965 41.2269 59.7445 41.2269 59.2229 41.022 58.8503 40.6307 58.4777 40.2395 58.2728 39.662 58.2728 38.9541 58.2728 38.2089 58.4591 37.6314 58.8503 37.2216 59.2415 36.8117 59.7259 36.6068 60.3407 36.6068 60.9368 36.6068 61.4212 36.8117 61.7937 37.2216 62.1663 37.6314 62.3526 38.1903 62.3526 38.9355 62.3526 38.9727 62.3526 39.0472 62.3526 39.1404L59.0552 39.1404C59.0739 39.6247 59.2229 39.9973 59.4651 40.2582 59.7073 40.519 60.024 40.6494 60.3965 40.6494 60.676 40.6494 60.8995 40.5749 61.1045 40.4258 61.2908 40.2395 61.4398 40.016 61.5702 39.6993ZM59.0925 38.4697 61.5702 38.4697C61.5329 38.0971 61.4398 37.8177 61.2908 37.6314 61.0486 37.3333 60.7319 37.2029 60.3593 37.2029 60.0053 37.2029 59.7259 37.3147 59.4837 37.5569 59.2415 37.7804 59.1111 38.0785 59.0925 38.4697Z" fill="#000000" fill-rule="nonzero" fill-opacity="1" transform="matrix(1 0 0 1.00147 -240 425)"/><path d="M63.2841 41.1151 63.2841 36.6627 63.9548 36.6627 63.9548 37.3333C64.1224 37.0166 64.2901 36.8117 64.4391 36.7186 64.5882 36.6254 64.7558 36.5695 64.9235 36.5695 65.1843 36.5695 65.4265 36.644 65.7059 36.8117L65.4451 37.5196C65.2588 37.4079 65.0725 37.352 64.8862 37.352 64.7186 37.352 64.5695 37.4079 64.4391 37.501 64.3087 37.5941 64.2156 37.7432 64.1597 37.9108 64.0852 38.1717 64.0293 38.4697 64.0293 38.7864L64.0293 41.1151 63.2841 41.1151Z" fill="#000000" fill-rule="nonzero" fill-opacity="1" transform="matrix(1 0 0 1.00147 -240 425)"/><path d="M65.855 38.8982C65.855 38.0785 66.0785 37.4637 66.5443 37.0725 66.9355 36.7372 67.4012 36.5695 67.9415 36.5695 68.5562 36.5695 69.0592 36.7744 69.4318 37.1657 69.823 37.5569 70.0093 38.1158 70.0093 38.8237 70.0093 39.4012 69.9162 39.8483 69.7485 40.165 69.5808 40.5003 69.32 40.7425 69.0033 40.9288 68.668 41.1151 68.314 41.2082 67.9228 41.2082 67.3081 41.2082 66.8051 41.0033 66.4138 40.6121 66.0599 40.2209 65.855 39.6434 65.855 38.8982ZM66.6374 38.8982C66.6374 39.4757 66.7678 39.8856 67.01 40.1836 67.2522 40.4631 67.5689 40.6121 67.9415 40.6121 68.314 40.6121 68.6307 40.4631 68.8729 40.1836 69.1151 39.9042 69.2455 39.4571 69.2455 38.8796 69.2455 38.3207 69.1151 37.9108 68.8729 37.6314 68.6307 37.352 68.314 37.2029 67.9415 37.2029 67.5689 37.2029 67.2522 37.352 67.01 37.6314 66.7492 37.9108 66.6374 38.3393 66.6374 38.8982Z" fill="#000000" fill-rule="nonzero" fill-opacity="1" transform="matrix(1 0 0 1.00147 -240 425)"/><path d="M77.7591 38.9727 78.5788 39.1776C78.4112 39.8483 78.0945 40.3513 77.666 40.7053 77.2189 41.0592 76.6786 41.2269 76.0452 41.2269 75.3932 41.2269 74.853 41.0965 74.4245 40.817 74.0146 40.5562 73.6979 40.165 73.4744 39.6434 73.2508 39.1404 73.1577 38.5815 73.1577 38.004 73.1577 37.3706 73.2881 36.8117 73.5303 36.3273 73.7725 35.843 74.1264 35.489 74.5735 35.2468 75.0206 35.0047 75.5236 34.8743 76.0639 34.8743 76.6786 34.8743 77.2003 35.0233 77.6101 35.34 78.02 35.6567 78.318 36.0852 78.4857 36.6627L77.6846 36.849C77.5356 36.4019 77.3307 36.0852 77.0699 35.8802 76.7904 35.6753 76.4551 35.5822 76.0452 35.5822 75.5795 35.5822 75.1883 35.6939 74.8716 35.9175 74.5549 36.1411 74.3313 36.4391 74.2009 36.8303 74.0705 37.2029 74.0146 37.6128 74.0146 38.004 74.0146 38.5256 74.0892 38.9727 74.2382 39.3639 74.3872 39.7552 74.6294 40.0532 74.9461 40.2395 75.2628 40.4258 75.6168 40.519 75.9894 40.519 76.4365 40.519 76.8277 40.3886 77.1444 40.1277 77.4425 39.8856 77.6474 39.4943 77.7591 38.9727Z" fill="#000000" fill-rule="nonzero" fill-opacity="1" transform="matrix(1 0 0 1.00147 -240 425)"/><path d="M82.3792 40.5749C82.0998 40.817 81.839 40.9847 81.5782 41.0778 81.3174 41.171 81.0379 41.2269 80.7399 41.2269 80.2555 41.2269 79.8829 41.1151 79.6221 40.8729 79.3613 40.6307 79.2309 40.3327 79.2309 39.9601 79.2309 39.7365 79.2868 39.5502 79.3799 39.3639 79.4731 39.1776 79.6035 39.0472 79.7711 38.9355 79.9388 38.8237 80.1065 38.7492 80.3114 38.6933 80.4604 38.656 80.684 38.6188 80.982 38.5815 81.5968 38.507 82.0439 38.4138 82.3233 38.3207 82.3233 38.2089 82.3233 38.153 82.3233 38.1158 82.3233 37.8177 82.2488 37.5941 82.1184 37.4637 81.9321 37.2961 81.6341 37.2029 81.2615 37.2029 80.9075 37.2029 80.6467 37.2588 80.479 37.3892 80.3114 37.5196 80.181 37.7246 80.1065 38.0413L79.3613 37.9481C79.4358 37.6314 79.5476 37.3706 79.6966 37.1843 79.8456 36.998 80.0692 36.849 80.3673 36.7372 80.6653 36.6254 81.0007 36.5882 81.3733 36.5882 81.7458 36.5882 82.0625 36.6254 82.3047 36.7186 82.5469 36.8117 82.7146 36.9235 82.8263 37.0539 82.9381 37.1843 83.0126 37.352 83.0685 37.5755 83.0872 37.7059 83.1058 37.9295 83.1058 38.2648L83.1058 39.2708C83.1058 39.9787 83.1244 40.4072 83.1617 40.5935 83.1989 40.7798 83.2548 40.9661 83.348 41.1337L82.5283 41.1337C82.4538 40.9661 82.3979 40.7798 82.3792 40.5749ZM82.3047 38.8982C82.0253 39.01 81.6154 39.1031 81.0752 39.1776 80.7585 39.2149 80.5536 39.2708 80.4232 39.3267 80.2927 39.3826 80.1996 39.4571 80.1251 39.5689 80.0506 39.6806 80.0133 39.7924 80.0133 39.9228 80.0133 40.1277 80.0878 40.2954 80.2369 40.4258 80.3859 40.5562 80.6095 40.6307 80.9075 40.6307 81.2056 40.6307 81.4478 40.5749 81.69 40.4444 81.9135 40.314 82.0812 40.1464 82.1929 39.9228 82.2675 39.7552 82.3233 39.4943 82.3233 39.1776L82.3233 38.8982Z" fill="#000000" fill-rule="nonzero" fill-opacity="1" transform="matrix(1 0 0 1.00147 -240 425)"/><path d="M84.2422 41.1151 84.2422 36.6627 84.9128 36.6627 84.9128 37.3333C85.0805 37.0166 85.2482 36.8117 85.3972 36.7186 85.5462 36.6254 85.7139 36.5695 85.8816 36.5695 86.1424 36.5695 86.3846 36.644 86.664 36.8117L86.4032 37.5196C86.2169 37.4079 86.0306 37.352 85.8443 37.352 85.6766 37.352 85.5276 37.4079 85.3972 37.501 85.2668 37.5941 85.1737 37.7432 85.1178 37.9108 85.0432 38.1717 84.9874 38.4697 84.9874 38.7864L84.9874 41.1151 84.2422 41.1151Z" fill="#000000" fill-rule="nonzero" fill-opacity="1" transform="matrix(1 0 0 1.00147 -240 425)"/><path d="M87.7818 41.1151 87.0739 41.1151 87.0739 34.986 87.819 34.986 87.819 37.1657C88.1357 36.7744 88.5456 36.5695 89.0299 36.5695 89.3094 36.5695 89.5702 36.6254 89.8124 36.7372 90.0546 36.849 90.2595 36.998 90.4085 37.2029 90.5576 37.4079 90.688 37.65 90.7811 37.9295 90.8743 38.2089 90.9115 38.507 90.9115 38.8423 90.9115 39.6061 90.7252 40.1836 90.3526 40.6121 89.98 41.0406 89.5329 41.2269 88.9927 41.2269 88.4711 41.2269 88.0612 41.0033 87.7631 40.5749L87.7631 41.1151ZM87.7818 38.8609C87.7818 39.4012 87.8563 39.7738 88.0053 40.016 88.2475 40.4072 88.5642 40.5935 88.9741 40.5935 89.3094 40.5935 89.5888 40.4444 89.831 40.165 90.0732 39.8856 90.185 39.4571 90.185 38.8796 90.185 38.3021 90.0732 37.8736 89.831 37.5941 89.6075 37.3147 89.328 37.1843 88.9927 37.1843 88.6573 37.1843 88.3779 37.3333 88.1357 37.6128 87.8935 37.9108 87.7818 38.3207 87.7818 38.8609Z" fill="#000000" fill-rule="nonzero" fill-opacity="1" transform="matrix(1 0 0 1.00147 -240 425)"/><path d="M91.5822 38.8982C91.5822 38.0785 91.8057 37.4637 92.2715 37.0725 92.6627 36.7372 93.1284 36.5695 93.6687 36.5695 94.2834 36.5695 94.7864 36.7744 95.159 37.1657 95.5502 37.5569 95.7365 38.1158 95.7365 38.8237 95.7365 39.4012 95.6434 39.8483 95.4757 40.165 95.3081 40.5003 95.0472 40.7425 94.7305 40.9288 94.3952 41.1151 94.0413 41.2082 93.65 41.2082 93.0353 41.2082 92.5323 41.0033 92.1411 40.6121 91.7498 40.2209 91.5822 39.6434 91.5822 38.8982ZM92.346 38.8982C92.346 39.4757 92.4764 39.8856 92.7186 40.1836 92.9607 40.4631 93.2775 40.6121 93.65 40.6121 94.0226 40.6121 94.3393 40.4631 94.5815 40.1836 94.8237 39.9042 94.9541 39.4571 94.9541 38.8796 94.9541 38.3207 94.8237 37.9108 94.5815 37.6314 94.3393 37.352 94.0226 37.2029 93.65 37.2029 93.2775 37.2029 92.9607 37.352 92.7186 37.6314 92.4764 37.9108 92.346 38.3393 92.346 38.8982Z" fill="#000000" fill-rule="nonzero" fill-opacity="1" transform="matrix(1 0 0 1.00147 -240 425)"/><path d="M96.6307 41.1151 96.6307 36.6627 97.3014 36.6627 97.3014 37.2961C97.6367 36.8117 98.1025 36.5695 98.7172 36.5695 98.978 36.5695 99.2389 36.6254 99.4624 36.7186 99.686 36.8117 99.8536 36.9421 99.9654 37.0912 100.077 37.2402 100.152 37.4265 100.208 37.65 100.226 37.7804 100.245 38.0413 100.245 38.3766L100.245 41.1151 99.4997 41.1151 99.4997 38.4138C99.4997 38.1158 99.4624 37.8736 99.4065 37.7246 99.3506 37.5755 99.2389 37.4451 99.0898 37.352 98.9408 37.2588 98.7731 37.2216 98.5682 37.2216 98.2515 37.2216 97.9721 37.3147 97.7299 37.5196 97.4877 37.7246 97.3759 38.1158 97.3759 38.6747L97.3759 41.0965 96.6307 41.0965Z" fill="#000000" fill-rule="nonzero" fill-opacity="1" transform="matrix(1 0 0 1.00147 -240 425)"/><path d="M105.275 41.1151 105.275 35.7126 103.263 35.7126 103.263 34.986 108.125 34.986 108.125 35.7126 106.094 35.7126 106.094 41.1151 105.275 41.1151Z" fill="#000000" fill-rule="nonzero" fill-opacity="1" transform="matrix(1 0 0 1.00147 -240 425)"/><path d="M110.938 39.6993 111.721 39.7924C111.59 40.2395 111.367 40.5935 111.031 40.8543 110.696 41.1151 110.267 41.2269 109.764 41.2269 109.112 41.2269 108.591 41.022 108.218 40.6307 107.846 40.2395 107.641 39.662 107.641 38.9541 107.641 38.2089 107.827 37.6314 108.218 37.2216 108.609 36.8117 109.094 36.6068 109.709 36.6068 110.305 36.6068 110.789 36.8117 111.162 37.2216 111.534 37.6314 111.721 38.1903 111.721 38.9355 111.721 38.9727 111.721 39.0472 111.721 39.1404L108.423 39.1404C108.442 39.6247 108.591 39.9973 108.833 40.2582 109.075 40.519 109.392 40.6494 109.764 40.6494 110.044 40.6494 110.267 40.5749 110.472 40.4258 110.677 40.2768 110.826 40.016 110.938 39.6993ZM108.479 38.4697 110.957 38.4697C110.92 38.0971 110.826 37.8177 110.677 37.6314 110.435 37.3333 110.118 37.2029 109.746 37.2029 109.392 37.2029 109.112 37.3147 108.87 37.5569 108.628 37.7804 108.498 38.0785 108.479 38.4697Z" fill="#000000" fill-rule="nonzero" fill-opacity="1" transform="matrix(1 0 0 1.00147 -240 425)"/><path d="M115.577 39.4943 116.322 39.5875C116.248 40.0905 116.043 40.5003 115.707 40.7798 115.372 41.0592 114.962 41.2082 114.478 41.2082 113.863 41.2082 113.379 41.0033 113.006 40.6121 112.633 40.2209 112.447 39.6434 112.447 38.8982 112.447 38.4138 112.522 38.004 112.689 37.6314 112.857 37.2588 113.099 36.998 113.416 36.8303 113.733 36.644 114.087 36.5695 114.478 36.5695 114.962 36.5695 115.353 36.6999 115.67 36.9421 115.968 37.1843 116.173 37.5383 116.266 37.9854L115.54 38.0971C115.465 37.7991 115.353 37.5755 115.167 37.4265 114.981 37.2774 114.776 37.2029 114.534 37.2029 114.161 37.2029 113.844 37.3333 113.602 37.6128 113.36 37.8922 113.248 38.3207 113.248 38.8982 113.248 39.4943 113.36 39.9228 113.584 40.2023 113.807 40.4817 114.105 40.6121 114.478 40.6121 114.776 40.6121 115.018 40.519 115.223 40.3327 115.428 40.1464 115.521 39.8669 115.577 39.4943Z" fill="#000000" fill-rule="nonzero" fill-opacity="1" transform="matrix(1 0 0 1.00147 -240 425)"/><path d="M116.955 41.1151 116.955 34.986 117.701 34.986 117.701 37.1843C118.055 36.7744 118.502 36.5695 119.023 36.5695 119.359 36.5695 119.638 36.6254 119.88 36.7558 120.122 36.8862 120.29 37.0725 120.402 37.2961 120.514 37.5196 120.551 37.855 120.551 38.2834L120.551 41.0965 119.806 41.0965 119.806 38.2834C119.806 37.9108 119.731 37.6314 119.564 37.4637 119.396 37.2961 119.172 37.2029 118.874 37.2029 118.651 37.2029 118.446 37.2588 118.241 37.3706 118.036 37.4824 117.906 37.65 117.812 37.8363 117.719 38.0226 117.682 38.3021 117.682 38.656L117.682 41.0778 116.955 41.0778Z" fill="#000000" fill-rule="nonzero" fill-opacity="1" transform="matrix(1 0 0 1.00147 -240 425)"/><path d="M121.725 41.1151 121.725 36.6627 122.395 36.6627 122.395 37.2961C122.731 36.8117 123.196 36.5695 123.811 36.5695 124.072 36.5695 124.333 36.6254 124.556 36.7186 124.78 36.8117 124.947 36.9421 125.059 37.0912 125.171 37.2402 125.246 37.4265 125.301 37.65 125.32 37.7804 125.339 38.0413 125.339 38.3766L125.339 41.1151 124.593 41.1151 124.593 38.4138C124.593 38.1158 124.556 37.8736 124.5 37.7246 124.444 37.5755 124.333 37.4451 124.184 37.352 124.035 37.2588 123.867 37.2216 123.662 37.2216 123.345 37.2216 123.066 37.3147 122.824 37.5196 122.582 37.7246 122.47 38.1158 122.47 38.6747L122.47 41.0965 121.725 41.0965Z" fill="#000000" fill-rule="nonzero" fill-opacity="1" transform="matrix(1 0 0 1.00147 -240 425)"/><path d="M126.214 38.8982C126.214 38.0785 126.438 37.4637 126.904 37.0725 127.295 36.7372 127.76 36.5695 128.301 36.5695 128.915 36.5695 129.419 36.7744 129.791 37.1657 130.182 37.5569 130.369 38.1158 130.369 38.8237 130.369 39.4012 130.275 39.8483 130.108 40.165 129.94 40.5003 129.679 40.7425 129.363 40.9288 129.027 41.1151 128.673 41.2082 128.282 41.2082 127.667 41.2082 127.164 41.0033 126.773 40.6121 126.401 40.2209 126.214 39.6434 126.214 38.8982ZM126.978 38.8982C126.978 39.4757 127.108 39.8856 127.351 40.1836 127.593 40.4631 127.91 40.6121 128.282 40.6121 128.655 40.6121 128.971 40.4631 129.214 40.1836 129.456 39.9042 129.586 39.4571 129.586 38.8796 129.586 38.3207 129.456 37.9108 129.214 37.6314 128.971 37.352 128.655 37.2029 128.282 37.2029 127.91 37.2029 127.593 37.352 127.351 37.6314 127.108 37.9108 126.978 38.3393 126.978 38.8982Z" fill="#000000" fill-rule="nonzero" fill-opacity="1" transform="matrix(1 0 0 1.00147 -240 425)"/><path d="M131.244 41.1151 131.244 34.986 131.989 34.986 131.989 41.1151 131.244 41.1151Z" fill="#000000" fill-rule="nonzero" fill-opacity="1" transform="matrix(1 0 0 1.00147 -240 425)"/><path d="M132.884 38.8982C132.884 38.0785 133.107 37.4637 133.573 37.0725 133.964 36.7372 134.43 36.5695 134.97 36.5695 135.585 36.5695 136.088 36.7744 136.46 37.1657 136.852 37.5569 137.038 38.1158 137.038 38.8237 137.038 39.4012 136.945 39.8483 136.777 40.165 136.609 40.5003 136.349 40.7425 136.032 40.9288 135.697 41.1151 135.343 41.2082 134.951 41.2082 134.337 41.2082 133.834 41.0033 133.442 40.6121 133.07 40.2209 132.884 39.6434 132.884 38.8982ZM133.647 38.8982C133.647 39.4757 133.778 39.8856 134.02 40.1836 134.262 40.4631 134.579 40.6121 134.951 40.6121 135.324 40.6121 135.641 40.4631 135.883 40.1836 136.125 39.9042 136.255 39.4571 136.255 38.8796 136.255 38.3207 136.125 37.9108 135.883 37.6314 135.641 37.352 135.324 37.2029 134.951 37.2029 134.579 37.2029 134.262 37.352 134.02 37.6314 133.778 37.9108 133.647 38.3393 133.647 38.8982Z" fill="#000000" fill-rule="nonzero" fill-opacity="1" transform="matrix(1 0 0 1.00147 -240 425)"/><path d="M137.783 41.4877 138.51 41.5995C138.547 41.823 138.621 41.9907 138.77 42.1025 138.957 42.2329 139.218 42.3074 139.534 42.3074 139.888 42.3074 140.149 42.2329 140.335 42.1025 140.522 41.9721 140.652 41.7671 140.727 41.5249 140.764 41.3759 140.782 41.0406 140.782 40.5562 140.447 40.9474 140.037 41.1337 139.553 41.1337 138.938 41.1337 138.472 40.9102 138.137 40.4817 137.802 40.0532 137.634 39.513 137.634 38.8982 137.634 38.4697 137.709 38.0785 137.858 37.7246 138.007 37.3706 138.23 37.0912 138.528 36.8862 138.826 36.6999 139.162 36.5882 139.553 36.5882 140.075 36.5882 140.503 36.7931 140.857 37.2216L140.857 36.6813 141.546 36.6813 141.546 40.519C141.546 41.2082 141.472 41.6926 141.341 41.9907 141.192 42.2888 140.969 42.5123 140.671 42.68 140.373 42.8476 139.981 42.9222 139.534 42.9222 139.013 42.9222 138.584 42.8104 138.249 42.5682 137.932 42.326 137.764 41.9721 137.783 41.4877ZM138.417 38.8237C138.417 39.4012 138.528 39.8297 138.77 40.1091 139.013 40.3886 139.292 40.519 139.646 40.519 140 40.519 140.279 40.3886 140.522 40.1277 140.764 39.8669 140.876 39.4385 140.876 38.8796 140.876 38.3393 140.764 37.9295 140.522 37.65 140.279 37.3706 139.981 37.2402 139.646 37.2402 139.311 37.2402 139.031 37.3706 138.789 37.65 138.528 37.8922 138.417 38.2834 138.417 38.8237Z" fill="#000000" fill-rule="nonzero" fill-opacity="1" transform="matrix(1 0 0 1.00147 -240 425)"/><path d="M142.701 35.8616 142.701 35.0047 143.446 35.0047 143.446 35.8616 142.701 35.8616ZM142.701 41.1151 142.701 36.6627 143.446 36.6627 143.446 41.1151 142.701 41.1151Z" fill="#000000" fill-rule="nonzero" fill-opacity="1" transform="matrix(1 0 0 1.00147 -240 425)"/><path d="M147.638 39.6993 148.421 39.7924C148.29 40.2395 148.067 40.5935 147.731 40.8543 147.396 41.1151 146.967 41.2269 146.464 41.2269 145.812 41.2269 145.291 41.022 144.918 40.6307 144.546 40.2395 144.341 39.662 144.341 38.9541 144.341 38.2089 144.527 37.6314 144.918 37.2216 145.309 36.8117 145.794 36.6068 146.409 36.6068 147.005 36.6068 147.489 36.8117 147.862 37.2216 148.234 37.6314 148.421 38.1903 148.421 38.9355 148.421 38.9727 148.421 39.0472 148.421 39.1404L145.123 39.1404C145.142 39.6247 145.291 39.9973 145.533 40.2582 145.775 40.519 146.092 40.6494 146.464 40.6494 146.744 40.6494 146.967 40.5749 147.172 40.4258 147.377 40.2768 147.526 40.016 147.638 39.6993ZM145.16 38.4697 147.638 38.4697C147.601 38.0971 147.508 37.8177 147.359 37.6314 147.116 37.3333 146.8 37.2029 146.427 37.2029 146.073 37.2029 145.794 37.3147 145.552 37.5569 145.309 37.7804 145.179 38.0785 145.16 38.4697Z" fill="#000000" fill-rule="nonzero" fill-opacity="1" transform="matrix(1 0 0 1.00147 -240 425)"/><path d="M149.054 39.7924 149.799 39.6806C149.836 39.9787 149.948 40.2023 150.153 40.3699 150.339 40.5376 150.619 40.6121 150.954 40.6121 151.308 40.6121 151.55 40.5376 151.718 40.4072 151.886 40.2582 151.96 40.1091 151.96 39.9042 151.96 39.7365 151.886 39.6061 151.737 39.4943 151.625 39.4198 151.383 39.3453 150.973 39.2335 150.414 39.1031 150.041 38.9727 149.818 38.8796 149.613 38.7864 149.445 38.6374 149.333 38.4511 149.222 38.2648 149.166 38.0785 149.166 37.855 149.166 37.65 149.203 37.4824 149.296 37.2961 149.389 37.1284 149.501 36.9794 149.669 36.8676 149.78 36.7744 149.948 36.6999 150.153 36.644 150.358 36.5882 150.563 36.5509 150.805 36.5509 151.159 36.5509 151.457 36.6068 151.718 36.6999 151.979 36.7931 152.184 36.9421 152.295 37.1098 152.426 37.2774 152.5 37.5196 152.556 37.7991L151.811 37.8922C151.774 37.6687 151.681 37.4824 151.513 37.352 151.345 37.2216 151.122 37.1657 150.842 37.1657 150.488 37.1657 150.246 37.2216 150.097 37.3333 149.948 37.4451 149.874 37.5755 149.874 37.7432 149.874 37.8363 149.911 37.9295 149.967 38.004 150.023 38.0785 150.116 38.153 150.246 38.2089 150.321 38.2275 150.544 38.3021 150.917 38.3952 151.457 38.5442 151.83 38.656 152.035 38.7492 152.24 38.8423 152.407 38.9727 152.538 39.1404 152.668 39.3081 152.724 39.5316 152.724 39.7924 152.724 40.0346 152.649 40.2768 152.5 40.5003 152.351 40.7239 152.146 40.8916 151.867 41.022 151.587 41.1524 151.271 41.2082 150.935 41.2082 150.358 41.2082 149.911 41.0965 149.613 40.8543 149.333 40.6307 149.147 40.2768 149.054 39.7924Z" fill="#000000" fill-rule="nonzero" fill-opacity="1" transform="matrix(1 0 0 1.00147 -240 425)"/><path d="M158.927 40.5749C158.648 40.817 158.387 40.9847 158.126 41.0778 157.866 41.171 157.586 41.2269 157.288 41.2269 156.804 41.2269 156.431 41.1151 156.17 40.8729 155.91 40.6307 155.779 40.3327 155.779 39.9601 155.779 39.7365 155.835 39.5502 155.928 39.3639 156.021 39.1776 156.152 39.0472 156.319 38.9355 156.487 38.8237 156.655 38.7492 156.86 38.6933 157.009 38.656 157.232 38.6188 157.53 38.5815 158.145 38.507 158.592 38.4138 158.872 38.3207 158.872 38.2089 158.872 38.153 158.872 38.1158 158.872 37.8177 158.797 37.5941 158.667 37.4637 158.48 37.2961 158.182 37.2029 157.81 37.2029 157.456 37.2029 157.195 37.2588 157.027 37.3892 156.86 37.5196 156.729 37.7246 156.655 38.0413L155.91 37.9481C155.984 37.6314 156.096 37.3706 156.245 37.1843 156.394 36.998 156.617 36.849 156.915 36.7372 157.214 36.6254 157.549 36.5882 157.921 36.5882 158.294 36.5882 158.611 36.6254 158.853 36.7186 159.095 36.8117 159.263 36.9235 159.375 37.0539 159.486 37.1843 159.561 37.352 159.617 37.5755 159.635 37.7059 159.654 37.9295 159.654 38.2648L159.654 39.2708C159.654 39.9787 159.673 40.4072 159.71 40.5935 159.747 40.7798 159.803 40.9661 159.896 41.1337L159.114 41.1337C159.002 40.9661 158.946 40.7798 158.927 40.5749ZM158.853 38.8982C158.574 39.01 158.164 39.1031 157.623 39.1776 157.307 39.2149 157.102 39.2708 156.971 39.3267 156.841 39.3826 156.748 39.4571 156.673 39.5689 156.599 39.6806 156.562 39.7924 156.562 39.9228 156.562 40.1277 156.636 40.2954 156.785 40.4258 156.934 40.5562 157.158 40.6307 157.456 40.6307 157.754 40.6307 157.996 40.5749 158.238 40.4444 158.462 40.314 158.629 40.1464 158.741 39.9228 158.816 39.7552 158.872 39.4943 158.872 39.1776L158.872 38.8982Z" fill="#000000" fill-rule="nonzero" fill-opacity="1" transform="matrix(1 0 0 1.00147 -240 425)"/><path d="M160.79 41.1151 160.79 36.6627 161.461 36.6627 161.461 37.2961C161.796 36.8117 162.262 36.5695 162.877 36.5695 163.138 36.5695 163.399 36.6254 163.622 36.7186 163.846 36.8117 164.013 36.9421 164.125 37.0912 164.237 37.2402 164.311 37.4265 164.367 37.65 164.386 37.7804 164.405 38.0413 164.405 38.3766L164.405 41.1151 163.659 41.1151 163.659 38.4138C163.659 38.1158 163.622 37.8736 163.566 37.7246 163.51 37.5755 163.399 37.4451 163.249 37.352 163.1 37.2588 162.933 37.2216 162.728 37.2216 162.411 37.2216 162.132 37.3147 161.89 37.5196 161.647 37.7246 161.536 38.1158 161.536 38.6747L161.536 41.0965 160.79 41.0965Z" fill="#000000" fill-rule="nonzero" fill-opacity="1" transform="matrix(1 0 0 1.00147 -240 425)"/><path d="M168.447 41.1151 168.447 40.5562C168.168 41.0033 167.758 41.2082 167.199 41.2082 166.845 41.2082 166.528 41.1151 166.23 40.9102 165.932 40.7239 165.709 40.4444 165.541 40.0905 165.373 39.7365 165.299 39.3453 165.299 38.8796 165.299 38.4325 165.373 38.0413 165.522 37.6687 165.671 37.3147 165.895 37.0353 166.193 36.8303 166.491 36.6254 166.826 36.5509 167.18 36.5509 167.441 36.5509 167.683 36.6068 167.888 36.7186 168.093 36.8303 168.261 36.9794 168.391 37.1657L168.391 34.9674 169.136 34.9674 169.136 41.0965 168.447 41.0965ZM166.063 38.8982C166.063 39.4757 166.174 39.8856 166.417 40.1836 166.659 40.4817 166.938 40.6121 167.273 40.6121 167.609 40.6121 167.888 40.4817 168.112 40.2023 168.335 39.9414 168.466 39.5316 168.466 38.9727 168.466 38.3579 168.354 37.9108 168.112 37.6314 167.87 37.352 167.59 37.2029 167.255 37.2029 166.919 37.2029 166.64 37.3333 166.417 37.6128 166.174 37.8922 166.063 38.3207 166.063 38.8982Z" fill="#000000" fill-rule="nonzero" fill-opacity="1" transform="matrix(1 0 0 1.00147 -240 425)"/><path d="M172.527 39.159 173.291 39.0845C173.328 39.3826 173.403 39.6434 173.552 39.8483 173.682 40.0532 173.887 40.2023 174.166 40.3327 174.446 40.4631 174.762 40.519 175.116 40.519 175.433 40.519 175.694 40.4817 175.936 40.3886 176.178 40.2954 176.346 40.165 176.458 40.016 176.57 39.8483 176.625 39.6806 176.625 39.4943 176.625 39.3081 176.57 39.1404 176.458 38.9914 176.346 38.8423 176.16 38.7305 175.899 38.6374 175.731 38.5815 175.377 38.4697 174.8 38.3393 174.241 38.2089 173.85 38.0785 173.607 37.9481 173.309 37.7991 173.104 37.6128 172.955 37.3706 172.806 37.147 172.732 36.8862 172.732 36.6068 172.732 36.2901 172.825 36.0106 172.993 35.7312 173.16 35.4704 173.421 35.2655 173.756 35.1164 174.092 34.9674 174.464 34.9115 174.874 34.9115 175.321 34.9115 175.731 34.986 176.085 35.1351 176.439 35.2841 176.7 35.489 176.886 35.7871 177.073 36.0852 177.166 36.4019 177.184 36.7558L176.402 36.8117C176.365 36.4205 176.216 36.1224 175.973 35.9361 175.731 35.7312 175.377 35.6381 174.912 35.6381 174.427 35.6381 174.055 35.7312 173.831 35.8989 173.607 36.0852 173.496 36.2901 173.496 36.5509 173.496 36.7744 173.57 36.9607 173.738 37.0912 173.887 37.2402 174.297 37.3706 174.967 37.5196 175.619 37.6687 176.085 37.7991 176.327 37.9108 176.681 38.0785 176.942 38.2834 177.11 38.5442 177.277 38.8051 177.371 39.0845 177.371 39.4198 177.371 39.7552 177.277 40.0532 177.091 40.3513 176.905 40.6307 176.644 40.8729 176.29 41.022 175.936 41.1896 175.545 41.2641 175.116 41.2641 174.558 41.2641 174.092 41.1896 173.719 41.022 173.347 40.8543 173.049 40.6121 172.844 40.2954 172.639 39.9228 172.527 39.5689 172.527 39.159Z" fill="#000000" fill-rule="nonzero" fill-opacity="1" transform="matrix(1 0 0 1.00147 -240 425)"/><path d="M181.469 39.6993 182.251 39.7924C182.121 40.2395 181.898 40.5935 181.562 40.8543 181.227 41.1151 180.798 41.2269 180.295 41.2269 179.643 41.2269 179.122 41.022 178.749 40.6307 178.377 40.2395 178.172 39.662 178.172 38.9541 178.172 38.2089 178.358 37.6314 178.749 37.2216 179.14 36.8117 179.625 36.6068 180.24 36.6068 180.836 36.6068 181.32 36.8117 181.693 37.2216 182.065 37.6314 182.251 38.1903 182.251 38.9355 182.251 38.9727 182.251 39.0472 182.251 39.1404L178.935 39.1404C178.954 39.6247 179.103 39.9973 179.345 40.2582 179.587 40.519 179.904 40.6494 180.277 40.6494 180.556 40.6494 180.78 40.5749 180.985 40.4258 181.19 40.2768 181.339 40.016 181.469 39.6993ZM178.991 38.4697 181.469 38.4697C181.432 38.0971 181.339 37.8177 181.19 37.6314 180.947 37.3333 180.631 37.2029 180.258 37.2029 179.904 37.2029 179.625 37.3147 179.383 37.5569 179.14 37.7804 179.01 38.0785 178.991 38.4697Z" fill="#000000" fill-rule="nonzero" fill-opacity="1" transform="matrix(1 0 0 1.00147 -240 425)"/><path d="M183.183 41.1151 183.183 36.6627 183.854 36.6627 183.854 37.3333C184.021 37.0166 184.189 36.8117 184.338 36.7186 184.487 36.6254 184.655 36.5695 184.822 36.5695 185.083 36.5695 185.325 36.644 185.605 36.8117L185.344 37.5196C185.158 37.4079 184.971 37.352 184.785 37.352 184.617 37.352 184.468 37.4079 184.338 37.501 184.208 37.5941 184.114 37.7432 184.059 37.9108 183.984 38.1717 183.928 38.4697 183.928 38.7864L183.928 41.1151 183.183 41.1151Z" fill="#000000" fill-rule="nonzero" fill-opacity="1" transform="matrix(1 0 0 1.00147 -240 425)"/><path d="M187.281 41.1151 185.586 36.6627 186.387 36.6627 187.337 39.3267C187.449 39.6061 187.542 39.9042 187.617 40.2209 187.691 39.9787 187.784 39.6993 187.896 39.3826L188.884 36.6627 189.666 36.6627 187.989 41.1151 187.281 41.1151Z" fill="#000000" fill-rule="nonzero" fill-opacity="1" transform="matrix(1 0 0 1.00147 -240 425)"/><path d="M190.318 35.8616 190.318 35.0047 191.063 35.0047 191.063 35.8616 190.318 35.8616ZM190.318 41.1151 190.318 36.6627 191.063 36.6627 191.063 41.1151 190.318 41.1151Z" fill="#000000" fill-rule="nonzero" fill-opacity="1" transform="matrix(1 0 0 1.00147 -240 425)"/><path d="M195.124 39.4943 195.87 39.5875C195.795 40.0905 195.59 40.5003 195.255 40.7798 194.92 41.0592 194.51 41.2082 194.025 41.2082 193.411 41.2082 192.926 41.0033 192.554 40.6121 192.181 40.2209 191.995 39.6434 191.995 38.8982 191.995 38.4138 192.069 38.004 192.237 37.6314 192.405 37.2588 192.647 36.998 192.963 36.8303 193.28 36.644 193.634 36.5695 194.025 36.5695 194.51 36.5695 194.901 36.6999 195.218 36.9421 195.516 37.1843 195.721 37.5383 195.814 37.9854L195.087 38.0971C195.013 37.7991 194.901 37.5755 194.715 37.4265 194.528 37.2774 194.323 37.2029 194.081 37.2029 193.709 37.2029 193.392 37.3333 193.15 37.6128 192.908 37.8922 192.796 38.3207 192.796 38.8982 192.796 39.4943 192.908 39.9228 193.131 40.2023 193.355 40.4817 193.653 40.6121 194.025 40.6121 194.323 40.6121 194.566 40.519 194.77 40.3327 194.975 40.1464 195.069 39.8669 195.124 39.4943Z" fill="#000000" fill-rule="nonzero" fill-opacity="1" transform="matrix(1 0 0 1.00147 -240 425)"/><path d="M199.558 39.6993 200.341 39.7924C200.21 40.2395 199.987 40.5935 199.651 40.8543 199.316 41.1151 198.888 41.2269 198.385 41.2269 197.733 41.2269 197.211 41.022 196.838 40.6307 196.466 40.2395 196.261 39.662 196.261 38.9541 196.261 38.2089 196.447 37.6314 196.838 37.2216 197.23 36.8117 197.714 36.6068 198.329 36.6068 198.925 36.6068 199.409 36.8117 199.782 37.2216 200.154 37.6314 200.341 38.1903 200.341 38.9355 200.341 38.9727 200.341 39.0472 200.341 39.1404L197.025 39.1404C197.043 39.6247 197.192 39.9973 197.434 40.2582 197.677 40.519 197.993 40.6494 198.366 40.6494 198.645 40.6494 198.869 40.5749 199.074 40.4258 199.279 40.2768 199.446 40.016 199.558 39.6993ZM197.081 38.4697 199.558 38.4697C199.521 38.0971 199.428 37.8177 199.279 37.6314 199.037 37.3333 198.72 37.2029 198.347 37.2029 197.993 37.2029 197.714 37.3147 197.472 37.5569 197.23 37.7804 197.099 38.0785 197.081 38.4697Z" fill="#000000" fill-rule="nonzero" fill-opacity="1" transform="matrix(1 0 0 1.00147 -240 425)"/><path d="M200.974 39.7924 201.719 39.6806C201.756 39.9787 201.868 40.2023 202.073 40.3699 202.259 40.5376 202.539 40.6121 202.874 40.6121 203.228 40.6121 203.47 40.5376 203.638 40.4072 203.806 40.2582 203.88 40.1091 203.88 39.9042 203.88 39.7365 203.806 39.6061 203.657 39.4943 203.545 39.4198 203.303 39.3453 202.893 39.2335 202.334 39.1031 201.961 38.9727 201.738 38.8796 201.533 38.7864 201.365 38.6374 201.254 38.4511 201.142 38.2648 201.086 38.0785 201.086 37.855 201.086 37.65 201.123 37.4824 201.216 37.2961 201.309 37.1284 201.421 36.9794 201.589 36.8676 201.701 36.7744 201.868 36.6999 202.073 36.644 202.278 36.5882 202.483 36.5509 202.725 36.5509 203.079 36.5509 203.377 36.6068 203.638 36.6999 203.899 36.7931 204.104 36.9421 204.216 37.1098 204.346 37.2774 204.421 37.5196 204.476 37.7991L203.731 37.8922C203.694 37.6687 203.601 37.4824 203.433 37.352 203.265 37.2216 203.042 37.1657 202.762 37.1657 202.409 37.1657 202.166 37.2216 202.017 37.3333 201.868 37.4451 201.794 37.5755 201.794 37.7432 201.794 37.8363 201.831 37.9295 201.887 38.004 201.943 38.0785 202.036 38.153 202.166 38.2089 202.241 38.2275 202.464 38.3021 202.837 38.3952 203.377 38.5442 203.75 38.656 203.955 38.7492 204.16 38.8423 204.327 38.9727 204.458 39.1404 204.588 39.3081 204.644 39.5316 204.644 39.7924 204.644 40.0346 204.57 40.2768 204.421 40.5003 204.271 40.7239 204.067 40.8916 203.787 41.022 203.508 41.1524 203.191 41.2082 202.856 41.2082 202.278 41.2082 201.831 41.0965 201.533 40.8543 201.254 40.6307 201.067 40.2768 200.974 39.7924Z" fill="#000000" fill-rule="nonzero" fill-opacity="1" transform="matrix(1 0 0 1.00147 -240 425)"/><path d="M206.898 41.1151 209.245 34.986 210.121 34.986 212.636 41.1151 211.705 41.1151 210.997 39.2522 208.426 39.2522 207.755 41.1151 206.898 41.1151ZM208.668 38.6001 210.755 38.6001 210.121 36.9049C209.935 36.3832 209.786 35.9734 209.693 35.6381 209.618 36.0293 209.506 36.4205 209.357 36.8117L208.668 38.6001Z" fill="#000000" fill-rule="nonzero" fill-opacity="1" transform="matrix(1 0 0 1.00147 -240 425)"/><path d="M213.176 41.1151 213.176 34.986 213.921 34.986 213.921 41.1151 213.176 41.1151Z" fill="#000000" fill-rule="nonzero" fill-opacity="1" transform="matrix(1 0 0 1.00147 -240 425)"/><path d="M215.077 41.1151 215.077 34.986 215.822 34.986 215.822 41.1151 215.077 41.1151Z" fill="#000000" fill-rule="nonzero" fill-opacity="1" transform="matrix(1 0 0 1.00147 -240 425)"/><path d="M216.995 35.8616 216.995 35.0047 217.741 35.0047 217.741 35.8616 216.995 35.8616ZM216.995 41.1151 216.995 36.6627 217.741 36.6627 217.741 41.1151 216.995 41.1151Z" fill="#000000" fill-rule="nonzero" fill-opacity="1" transform="matrix(1 0 0 1.00147 -240 425)"/><path d="M221.802 40.5749C221.522 40.817 221.261 40.9847 221.001 41.0778 220.74 41.171 220.46 41.2269 220.162 41.2269 219.678 41.2269 219.305 41.1151 219.045 40.8729 218.784 40.6307 218.653 40.3327 218.653 39.9601 218.653 39.7365 218.709 39.5502 218.802 39.3639 218.896 39.1776 219.026 39.0472 219.194 38.9355 219.361 38.8237 219.529 38.7492 219.734 38.6933 219.883 38.656 220.106 38.6188 220.405 38.5815 221.019 38.507 221.466 38.4138 221.746 38.3207 221.746 38.2089 221.746 38.153 221.746 38.1158 221.746 37.8177 221.671 37.5941 221.541 37.4637 221.355 37.2961 221.057 37.2029 220.684 37.2029 220.33 37.2029 220.069 37.2588 219.902 37.3892 219.734 37.5196 219.603 37.7246 219.529 38.0413L218.784 37.9481C218.858 37.6314 218.97 37.3706 219.119 37.1843 219.268 36.998 219.492 36.849 219.79 36.7372 220.088 36.6254 220.423 36.5882 220.796 36.5882 221.168 36.5882 221.485 36.6254 221.727 36.7186 221.969 36.8117 222.137 36.9235 222.249 37.0539 222.361 37.1843 222.435 37.352 222.491 37.5755 222.51 37.7059 222.528 37.9295 222.528 38.2648L222.528 39.2708C222.528 39.9787 222.547 40.4072 222.584 40.5935 222.621 40.7798 222.677 40.9661 222.77 41.1337L221.988 41.1337C221.876 40.9661 221.82 40.7798 221.802 40.5749ZM221.727 38.8982C221.448 39.01 221.038 39.1031 220.498 39.1776 220.181 39.2149 219.976 39.2708 219.846 39.3267 219.715 39.3826 219.622 39.4571 219.548 39.5689 219.473 39.6806 219.436 39.7924 219.436 39.9228 219.436 40.1277 219.51 40.2954 219.659 40.4258 219.808 40.5562 220.032 40.6307 220.33 40.6307 220.628 40.6307 220.87 40.5749 221.112 40.4444 221.336 40.314 221.504 40.1464 221.615 39.9228 221.69 39.7552 221.746 39.4943 221.746 39.1776L221.746 38.8982Z" fill="#000000" fill-rule="nonzero" fill-opacity="1" transform="matrix(1 0 0 1.00147 -240 425)"/><path d="M223.665 41.1151 223.665 36.6627 224.335 36.6627 224.335 37.2961C224.671 36.8117 225.136 36.5695 225.751 36.5695 226.012 36.5695 226.273 36.6254 226.496 36.7186 226.72 36.8117 226.888 36.9421 226.999 37.0912 227.111 37.2402 227.186 37.4265 227.242 37.65 227.26 37.7804 227.279 38.0413 227.279 38.3766L227.279 41.1151 226.534 41.1151 226.534 38.4138C226.534 38.1158 226.496 37.8736 226.44 37.7246 226.385 37.5755 226.273 37.4451 226.124 37.352 225.975 37.2588 225.807 37.2216 225.602 37.2216 225.285 37.2216 225.006 37.3147 224.764 37.5196 224.522 37.7246 224.41 38.1158 224.41 38.6747L224.41 41.0965 223.665 41.0965Z" fill="#000000" fill-rule="nonzero" fill-opacity="1" transform="matrix(1 0 0 1.00147 -240 425)"/><path d="M231.321 39.4943 232.067 39.5875C231.992 40.0905 231.787 40.5003 231.452 40.7798 231.116 41.0592 230.707 41.2082 230.222 41.2082 229.607 41.2082 229.123 41.0033 228.751 40.6121 228.378 40.2209 228.192 39.6434 228.192 38.8982 228.192 38.4138 228.266 38.004 228.434 37.6314 228.601 37.2588 228.844 36.998 229.16 36.8303 229.477 36.644 229.831 36.5695 230.222 36.5695 230.707 36.5695 231.098 36.6999 231.414 36.9421 231.713 37.1843 231.917 37.5383 232.011 37.9854L231.284 38.0971C231.21 37.7991 231.098 37.5755 230.912 37.4265 230.725 37.2774 230.52 37.2029 230.278 37.2029 229.906 37.2029 229.589 37.3333 229.347 37.6128 229.104 37.8922 228.993 38.3207 228.993 38.8982 228.993 39.4943 229.104 39.9228 229.328 40.2023 229.552 40.4817 229.85 40.6121 230.222 40.6121 230.52 40.6121 230.762 40.519 230.967 40.3327 231.172 40.1464 231.284 39.8669 231.321 39.4943Z" fill="#000000" fill-rule="nonzero" fill-opacity="1" transform="matrix(1 0 0 1.00147 -240 425)"/><path d="M235.755 39.6993 236.538 39.7924C236.407 40.2395 236.184 40.5935 235.848 40.8543 235.513 41.1151 235.085 41.2269 234.581 41.2269 233.929 41.2269 233.408 41.022 233.035 40.6307 232.663 40.2395 232.458 39.662 232.458 38.9541 232.458 38.2089 232.644 37.6314 233.035 37.2216 233.426 36.8117 233.911 36.6068 234.526 36.6068 235.122 36.6068 235.606 36.8117 235.979 37.2216 236.351 37.6314 236.538 38.1903 236.538 38.9355 236.538 38.9727 236.538 39.0472 236.538 39.1404L233.24 39.1404C233.259 39.6247 233.408 39.9973 233.65 40.2582 233.892 40.519 234.209 40.6494 234.581 40.6494 234.861 40.6494 235.085 40.5749 235.289 40.4258 235.494 40.2768 235.643 40.016 235.755 39.6993ZM233.277 38.4697 235.755 38.4697C235.718 38.0971 235.625 37.8177 235.476 37.6314 235.234 37.3333 234.917 37.2029 234.544 37.2029 234.19 37.2029 233.911 37.3147 233.669 37.5569 233.445 37.7804 233.315 38.0785 233.277 38.4697Z" fill="#000000" fill-rule="nonzero" fill-opacity="1" transform="matrix(1 0 0 1.00147 -240 425)"/><path d="M241.307 42.9222C240.897 42.4005 240.543 41.7858 240.245 41.0778 239.947 40.3699 239.816 39.6434 239.816 38.8982 239.816 38.2275 239.928 37.5941 240.133 36.998 240.375 36.2901 240.766 35.5822 241.288 34.8929L241.828 34.8929C241.493 35.4704 241.269 35.8802 241.158 36.1411 240.99 36.5323 240.86 36.9235 240.748 37.352 240.636 37.8736 240.562 38.3952 240.562 38.9168 240.562 40.2582 240.971 41.5995 241.81 42.9408L241.307 42.9408Z" fill="#000000" fill-rule="nonzero" fill-opacity="1" transform="matrix(1 0 0 1.00147 -240 425)"/><path d="M242.313 41.1151 242.313 40.3699 245.461 36.4391C245.685 36.1597 245.89 35.9175 246.094 35.7126L242.667 35.7126 242.667 34.986 247.063 34.986 247.063 35.7126 243.617 39.9601 243.244 40.3886 247.156 40.3886 247.156 41.1151 242.313 41.1151Z" fill="#000000" fill-rule="nonzero" fill-opacity="1" transform="matrix(1 0 0 1.00147 -240 425)"/><path d="M252.428 38.9727 253.248 39.1776C253.081 39.8483 252.764 40.3513 252.335 40.7053 251.888 41.0592 251.348 41.2269 250.715 41.2269 250.063 41.2269 249.522 41.0965 249.094 40.817 248.684 40.5562 248.367 40.165 248.144 39.6434 247.92 39.1404 247.827 38.5815 247.827 38.004 247.827 37.3706 247.957 36.8117 248.2 36.3273 248.442 35.843 248.796 35.489 249.243 35.2468 249.69 35.0047 250.193 34.8743 250.733 34.8743 251.348 34.8743 251.87 35.0233 252.279 35.34 252.689 35.6567 252.987 36.0852 253.155 36.6627L252.354 36.849C252.205 36.4019 252 36.0852 251.739 35.8802 251.478 35.6753 251.124 35.5822 250.715 35.5822 250.249 35.5822 249.858 35.6939 249.541 35.9175 249.224 36.1411 249.001 36.4391 248.87 36.8303 248.74 37.2029 248.684 37.6128 248.684 38.004 248.684 38.5256 248.758 38.9727 248.908 39.3639 249.057 39.7552 249.299 40.0532 249.615 40.2395 249.932 40.4258 250.286 40.519 250.659 40.519 251.106 40.519 251.497 40.3886 251.814 40.1277 252.13 39.8669 252.317 39.4943 252.428 38.9727Z" fill="#000000" fill-rule="nonzero" fill-opacity="1" transform="matrix(1 0 0 1.00147 -240 425)"/><path d="M255.8 41.1151 255.8 35.7126 253.788 35.7126 253.788 34.986 258.651 34.986 258.651 35.7126 256.62 35.7126 256.62 41.1151 255.8 41.1151Z" fill="#000000" fill-rule="nonzero" fill-opacity="1" transform="matrix(1 0 0 1.00147 -240 425)"/><path d="M259.191 39.159 259.955 39.0845C259.992 39.3826 260.067 39.6434 260.216 39.8483 260.346 40.0532 260.551 40.2023 260.83 40.3327 261.11 40.4631 261.426 40.519 261.78 40.519 262.097 40.519 262.358 40.4817 262.6 40.3886 262.842 40.2954 263.01 40.165 263.122 40.016 263.234 39.8483 263.289 39.6806 263.289 39.4943 263.289 39.3081 263.234 39.1404 263.122 38.9914 263.01 38.8423 262.824 38.7305 262.563 38.6374 262.395 38.5815 262.041 38.4697 261.464 38.3393 260.905 38.2089 260.514 38.0785 260.271 37.9481 259.973 37.7991 259.768 37.6128 259.619 37.3706 259.47 37.147 259.396 36.8862 259.396 36.6068 259.396 36.2901 259.489 36.0106 259.657 35.7312 259.824 35.4704 260.085 35.2655 260.421 35.1164 260.756 34.9674 261.128 34.9115 261.538 34.9115 261.985 34.9115 262.395 34.986 262.749 35.1351 263.103 35.2841 263.364 35.489 263.55 35.7871 263.737 36.0852 263.83 36.4019 263.848 36.7558L263.066 36.8117C263.029 36.4205 262.88 36.1224 262.637 35.9361 262.395 35.7312 262.041 35.6381 261.576 35.6381 261.091 35.6381 260.719 35.7312 260.495 35.8989 260.271 36.0852 260.16 36.2901 260.16 36.5509 260.16 36.7744 260.234 36.9607 260.402 37.0912 260.551 37.2402 260.961 37.3706 261.631 37.5196 262.283 37.6687 262.749 37.7991 262.991 37.9108 263.345 38.0785 263.606 38.2834 263.774 38.5442 263.941 38.8051 264.035 39.0845 264.035 39.4198 264.035 39.7552 263.941 40.0532 263.755 40.3513 263.569 40.6307 263.308 40.8729 262.954 41.022 262.6 41.1896 262.209 41.2641 261.78 41.2641 261.222 41.2641 260.756 41.1896 260.383 41.022 260.011 40.8543 259.713 40.6121 259.508 40.2954 259.321 39.9228 259.21 39.5689 259.191 39.159Z" fill="#000000" fill-rule="nonzero" fill-opacity="1" transform="matrix(1 0 0 1.00147 -240 425)"/><path d="M264.519 41.1151 266.866 34.986 267.742 34.986 270.257 41.1151 269.325 41.1151 268.617 39.2522 266.047 39.2522 265.376 41.1151 264.519 41.1151ZM266.289 38.6001 268.375 38.6001 267.742 36.9049C267.556 36.3832 267.407 35.9734 267.313 35.6381 267.239 36.0293 267.127 36.4205 266.978 36.8117L266.289 38.6001Z" fill="#000000" fill-rule="nonzero" fill-opacity="1" transform="matrix(1 0 0 1.00147 -240 425)"/><path d="M271.3 42.9222 270.76 42.9222C271.598 41.5808 272.008 40.2395 272.008 38.8982 272.008 38.3766 271.952 37.855 271.822 37.3333 271.729 36.9235 271.598 36.5136 271.43 36.1224 271.319 35.8802 271.095 35.4518 270.76 34.8743L271.3 34.8743C271.822 35.5822 272.213 36.2715 272.455 36.9794 272.679 37.5941 272.772 38.2275 272.772 38.8796 272.772 39.6247 272.623 40.3699 272.343 41.0592 272.064 41.7858 271.71 42.4005 271.3 42.9222Z" fill="#000000" fill-rule="nonzero" fill-opacity="1" transform="matrix(1 0 0 1.00147 -240 425)"/></g></g></g></g></g></svg>